<svg width="130" height="54" viewBox="0 0 130 54" fill="none" xmlns="http://www.w3.org/2000/svg">
<rect width="35.3978" height="53.0967" rx="10" fill="#16C2DE"/>
<rect width="35.3978" height="53.0967" rx="10" fill="#16C2DE"/>
<rect x="94.394" width="35.3978" height="53.0967" rx="10" fill="#16C2DE"/>
<rect x="94.394" width="35.3978" height="53.0967" rx="10" fill="#F4574C"/>
<rect x="17.699" width="94.3941" height="53.0967" fill="#252525"/>
<circle cx="9.14445" cy="15.0441" r="4.42473" fill="#252525"/>
<ellipse cx="5.89953" cy="31.858" rx="1.76989" ry="1.76989" fill="#252525"/>
<ellipse cx="9.43932" cy="28.3182" rx="1.76989" ry="1.76989" fill="#252525"/>
<ellipse cx="12.9791" cy="31.858" rx="1.76989" ry="1.76989" fill="#252525"/>
<ellipse cx="9.43932" cy="35.3978" rx="1.76989" ry="1.76989" fill="#252525"/>
<ellipse cx="117.403" cy="15.3391" rx="1.76989" ry="1.76989" fill="#252525"/>
<ellipse cx="120.942" cy="11.7993" rx="1.76989" ry="1.76989" fill="#252525"/>
<ellipse cx="124.482" cy="15.3391" rx="1.76989" ry="1.76989" fill="#252525"/>
<ellipse cx="120.942" cy="18.8788" rx="1.76989" ry="1.76989" fill="#252525"/>
<circle cx="120.648" cy="32.743" r="4.42473" fill="#252525"/>
<rect x="23" y="3" width="84" height="47" fill="white"/>
</svg>
