<svg width="153" height="67" viewBox="0 0 153 67" fill="none" xmlns="http://www.w3.org/2000/svg">
<path d="M0 33.5C0 14.9985 14.9985 0 33.5 0H119.5C138.002 0 153 14.9985 153 33.5V33.5C153 52.0015 138.002 67 119.5 67H33.5C14.9985 67 0 52.0015 0 33.5V33.5Z" fill="#B9A595"/>
<path d="M19.7251 41.204C18.8071 41.204 17.9515 41.0567 17.1581 40.762C16.3761 40.456 15.6961 40.0253 15.1181 39.47C14.5401 38.9147 14.0868 38.263 13.7581 37.515C13.4408 36.767 13.2821 35.9453 13.2821 35.05C13.2821 34.1547 13.4408 33.333 13.7581 32.585C14.0868 31.837 14.5401 31.1853 15.1181 30.63C15.7075 30.0747 16.3931 29.6497 17.1751 29.355C17.9571 29.049 18.8128 28.896 19.7421 28.896C20.7735 28.896 21.7028 29.0773 22.5301 29.44C23.3688 29.7913 24.0715 30.3127 24.6381 31.004L22.8701 32.636C22.4621 32.1713 22.0088 31.8257 21.5101 31.599C21.0115 31.361 20.4675 31.242 19.8781 31.242C19.3228 31.242 18.8128 31.3327 18.3481 31.514C17.8835 31.6953 17.4811 31.956 17.1411 32.296C16.8011 32.636 16.5348 33.0383 16.3421 33.503C16.1608 33.9677 16.0701 34.4833 16.0701 35.05C16.0701 35.6167 16.1608 36.1323 16.3421 36.597C16.5348 37.0617 16.8011 37.464 17.1411 37.804C17.4811 38.144 17.8835 38.4047 18.3481 38.586C18.8128 38.7673 19.3228 38.858 19.8781 38.858C20.4675 38.858 21.0115 38.7447 21.5101 38.518C22.0088 38.28 22.4621 37.923 22.8701 37.447L24.6381 39.079C24.0715 39.7703 23.3688 40.2973 22.5301 40.66C21.7028 41.0227 20.7678 41.204 19.7251 41.204ZM26.3109 41V28.386H28.9629V41H26.3109ZM35.7762 41.136C34.8015 41.136 33.9345 40.932 33.1752 40.524C32.4272 40.116 31.8322 39.5607 31.3902 38.858C30.9595 38.144 30.7442 37.3337 30.7442 36.427C30.7442 35.509 30.9595 34.6987 31.3902 33.996C31.8322 33.282 32.4272 32.7267 33.1752 32.33C33.9345 31.922 34.8015 31.718 35.7762 31.718C36.7395 31.718 37.6009 31.922 38.3602 32.33C39.1195 32.7267 39.7145 33.2763 40.1452 33.979C40.5759 34.6817 40.7912 35.4977 40.7912 36.427C40.7912 37.3337 40.5759 38.144 40.1452 38.858C39.7145 39.5607 39.1195 40.116 38.3602 40.524C37.6009 40.932 36.7395 41.136 35.7762 41.136ZM35.7762 38.96C36.2182 38.96 36.6149 38.858 36.9662 38.654C37.3175 38.45 37.5952 38.161 37.7992 37.787C38.0032 37.4017 38.1052 36.9483 38.1052 36.427C38.1052 35.8943 38.0032 35.441 37.7992 35.067C37.5952 34.693 37.3175 34.404 36.9662 34.2C36.6149 33.996 36.2182 33.894 35.7762 33.894C35.3342 33.894 34.9375 33.996 34.5862 34.2C34.2349 34.404 33.9515 34.693 33.7362 35.067C33.5322 35.441 33.4302 35.8943 33.4302 36.427C33.4302 36.9483 33.5322 37.4017 33.7362 37.787C33.9515 38.161 34.2349 38.45 34.5862 38.654C34.9375 38.858 35.3342 38.96 35.7762 38.96ZM45.6408 41.136C44.8588 41.136 44.1052 41.0453 43.3798 40.864C42.6658 40.6713 42.0992 40.4333 41.6798 40.15L42.5638 38.246C42.9832 38.5067 43.4762 38.722 44.0428 38.892C44.6208 39.0507 45.1875 39.13 45.7428 39.13C46.3548 39.13 46.7855 39.0563 47.0348 38.909C47.2955 38.7617 47.4258 38.5577 47.4258 38.297C47.4258 38.0817 47.3238 37.923 47.1198 37.821C46.9272 37.7077 46.6665 37.6227 46.3378 37.566C46.0092 37.5093 45.6465 37.4527 45.2498 37.396C44.8645 37.3393 44.4735 37.2657 44.0768 37.175C43.6802 37.073 43.3175 36.9257 42.9888 36.733C42.6602 36.5403 42.3938 36.2797 42.1898 35.951C41.9972 35.6223 41.9008 35.1973 41.9008 34.676C41.9008 34.098 42.0652 33.588 42.3938 33.146C42.7338 32.704 43.2212 32.3583 43.8558 32.109C44.4905 31.8483 45.2498 31.718 46.1338 31.718C46.7572 31.718 47.3918 31.786 48.0378 31.922C48.6838 32.058 49.2222 32.2563 49.6528 32.517L48.7688 34.404C48.3268 34.1433 47.8792 33.9677 47.4258 33.877C46.9838 33.775 46.5532 33.724 46.1338 33.724C45.5445 33.724 45.1138 33.8033 44.8418 33.962C44.5698 34.1207 44.4338 34.3247 44.4338 34.574C44.4338 34.8007 44.5302 34.9707 44.7228 35.084C44.9268 35.1973 45.1932 35.288 45.5218 35.356C45.8505 35.424 46.2075 35.4863 46.5928 35.543C46.9895 35.5883 47.3862 35.662 47.7828 35.764C48.1795 35.866 48.5365 36.0133 48.8538 36.206C49.1825 36.3873 49.4488 36.6423 49.6528 36.971C49.8568 37.2883 49.9588 37.7077 49.9588 38.229C49.9588 38.7957 49.7888 39.3 49.4488 39.742C49.1088 40.1727 48.6158 40.5127 47.9698 40.762C47.3352 41.0113 46.5588 41.136 45.6408 41.136ZM56.1341 41.136C55.0914 41.136 54.1734 40.932 53.3801 40.524C52.5981 40.116 51.9918 39.5607 51.5611 38.858C51.1304 38.144 50.9151 37.3337 50.9151 36.427C50.9151 35.509 51.1248 34.6987 51.5441 33.996C51.9748 33.282 52.5584 32.7267 53.2951 32.33C54.0318 31.922 54.8648 31.718 55.7941 31.718C56.6894 31.718 57.4941 31.9107 58.2081 32.296C58.9334 32.67 59.5058 33.214 59.9251 33.928C60.3444 34.6307 60.5541 35.475 60.5541 36.461C60.5541 36.563 60.5484 36.682 60.5371 36.818C60.5258 36.9427 60.5144 37.0617 60.5031 37.175H53.0741V35.628H59.1091L58.0891 36.087C58.0891 35.611 57.9928 35.1973 57.8001 34.846C57.6074 34.4947 57.3411 34.2227 57.0011 34.03C56.6611 33.826 56.2644 33.724 55.8111 33.724C55.3578 33.724 54.9554 33.826 54.6041 34.03C54.2641 34.2227 53.9978 34.5003 53.8051 34.863C53.6124 35.2143 53.5161 35.6337 53.5161 36.121V36.529C53.5161 37.0277 53.6238 37.4697 53.8391 37.855C54.0658 38.229 54.3774 38.518 54.7741 38.722C55.1821 38.9147 55.6581 39.011 56.2021 39.011C56.6894 39.011 57.1144 38.9373 57.4771 38.79C57.8511 38.6427 58.1911 38.4217 58.4971 38.127L59.9081 39.657C59.4888 40.133 58.9618 40.5013 58.3271 40.762C57.6924 41.0113 56.9614 41.136 56.1341 41.136ZM67.3212 41V29.1H72.7272C74.0192 29.1 75.1582 29.3493 76.1442 29.848C77.1302 30.3353 77.9008 31.021 78.4562 31.905C79.0115 32.789 79.2892 33.8373 79.2892 35.05C79.2892 36.2513 79.0115 37.2997 78.4562 38.195C77.9008 39.079 77.1302 39.7703 76.1442 40.269C75.1582 40.7563 74.0192 41 72.7272 41H67.3212ZM70.0752 38.739H72.5912C73.3845 38.739 74.0702 38.5917 74.6482 38.297C75.2375 37.991 75.6908 37.5603 76.0082 37.005C76.3368 36.4497 76.5012 35.798 76.5012 35.05C76.5012 34.2907 76.3368 33.639 76.0082 33.095C75.6908 32.5397 75.2375 32.1147 74.6482 31.82C74.0702 31.514 73.3845 31.361 72.5912 31.361H70.0752V38.739ZM81.1791 41V31.854H83.8311V41H81.1791ZM82.5051 30.579C82.0177 30.579 81.6211 30.4373 81.3151 30.154C81.0091 29.8707 80.8561 29.5193 80.8561 29.1C80.8561 28.6807 81.0091 28.3293 81.3151 28.046C81.6211 27.7627 82.0177 27.621 82.5051 27.621C82.9924 27.621 83.3891 27.757 83.6951 28.029C84.0011 28.2897 84.1541 28.6297 84.1541 29.049C84.1541 29.491 84.0011 29.8593 83.6951 30.154C83.4004 30.4373 83.0037 30.579 82.5051 30.579ZM91.6984 41.136C90.9277 41.136 90.2534 40.966 89.6754 40.626C89.0974 40.286 88.644 39.7703 88.3154 39.079C87.998 38.3763 87.8394 37.4923 87.8394 36.427C87.8394 35.3503 87.9924 34.4663 88.2984 33.775C88.6044 33.0837 89.0464 32.568 89.6244 32.228C90.2024 31.888 90.8937 31.718 91.6984 31.718C92.5597 31.718 93.3304 31.9163 94.0104 32.313C94.7017 32.6983 95.2457 33.2423 95.6424 33.945C96.0504 34.6477 96.2544 35.475 96.2544 36.427C96.2544 37.3903 96.0504 38.2233 95.6424 38.926C95.2457 39.6287 94.7017 40.1727 94.0104 40.558C93.3304 40.9433 92.5597 41.136 91.6984 41.136ZM86.2924 44.298V31.854H88.8254V33.724L88.7744 36.444L88.9444 39.147V44.298H86.2924ZM91.2394 38.96C91.6814 38.96 92.0724 38.858 92.4124 38.654C92.7637 38.45 93.0414 38.161 93.2454 37.787C93.4607 37.4017 93.5684 36.9483 93.5684 36.427C93.5684 35.8943 93.4607 35.441 93.2454 35.067C93.0414 34.693 92.7637 34.404 92.4124 34.2C92.0724 33.996 91.6814 33.894 91.2394 33.894C90.7974 33.894 90.4007 33.996 90.0494 34.2C89.698 34.404 89.4204 34.693 89.2164 35.067C89.0124 35.441 88.9104 35.8943 88.9104 36.427C88.9104 36.9483 89.0124 37.4017 89.2164 37.787C89.4204 38.161 89.698 38.45 90.0494 38.654C90.4007 38.858 90.7974 38.96 91.2394 38.96ZM98.0297 41V28.386H100.682V41H98.0297ZM107.495 41.136C106.52 41.136 105.653 40.932 104.894 40.524C104.146 40.116 103.551 39.5607 103.109 38.858C102.678 38.144 102.463 37.3337 102.463 36.427C102.463 35.509 102.678 34.6987 103.109 33.996C103.551 33.282 104.146 32.7267 104.894 32.33C105.653 31.922 106.52 31.718 107.495 31.718C108.458 31.718 109.32 31.922 110.079 32.33C110.838 32.7267 111.433 33.2763 111.864 33.979C112.295 34.6817 112.51 35.4977 112.51 36.427C112.51 37.3337 112.295 38.144 111.864 38.858C111.433 39.5607 110.838 40.116 110.079 40.524C109.32 40.932 108.458 41.136 107.495 41.136ZM107.495 38.96C107.937 38.96 108.334 38.858 108.685 38.654C109.036 38.45 109.314 38.161 109.518 37.787C109.722 37.4017 109.824 36.9483 109.824 36.427C109.824 35.8943 109.722 35.441 109.518 35.067C109.314 34.693 109.036 34.404 108.685 34.2C108.334 33.996 107.937 33.894 107.495 33.894C107.053 33.894 106.656 33.996 106.305 34.2C105.954 34.404 105.67 34.693 105.455 35.067C105.251 35.441 105.149 35.8943 105.149 36.427C105.149 36.9483 105.251 37.4017 105.455 37.787C105.67 38.161 105.954 38.45 106.305 38.654C106.656 38.858 107.053 38.96 107.495 38.96ZM125.996 31.718C126.721 31.718 127.361 31.8653 127.917 32.16C128.483 32.4433 128.925 32.8853 129.243 33.486C129.571 34.0753 129.736 34.8347 129.736 35.764V41H127.084V36.172C127.084 35.4353 126.931 34.8913 126.625 34.54C126.319 34.1887 125.888 34.013 125.333 34.013C124.947 34.013 124.602 34.1037 124.296 34.285C123.99 34.455 123.752 34.7157 123.582 35.067C123.412 35.4183 123.327 35.866 123.327 36.41V41H120.675V36.172C120.675 35.4353 120.522 34.8913 120.216 34.54C119.921 34.1887 119.496 34.013 118.941 34.013C118.555 34.013 118.21 34.1037 117.904 34.285C117.598 34.455 117.36 34.7157 117.19 35.067C117.02 35.4183 116.935 35.866 116.935 36.41V41H114.283V31.854H116.816V34.353L116.34 33.622C116.657 32.9987 117.105 32.5283 117.683 32.211C118.272 31.8823 118.941 31.718 119.689 31.718C120.527 31.718 121.258 31.9333 121.882 32.364C122.516 32.7833 122.936 33.4293 123.14 34.302L122.205 34.047C122.511 33.333 122.998 32.7663 123.667 32.347C124.347 31.9277 125.123 31.718 125.996 31.718ZM137.723 41V39.215L137.553 38.824V35.628C137.553 35.0613 137.377 34.6193 137.026 34.302C136.686 33.9847 136.159 33.826 135.445 33.826C134.957 33.826 134.476 33.9053 134 34.064C133.535 34.2113 133.138 34.4153 132.81 34.676L131.858 32.823C132.356 32.4717 132.957 32.1997 133.66 32.007C134.362 31.8143 135.076 31.718 135.802 31.718C137.196 31.718 138.278 32.0467 139.049 32.704C139.819 33.3613 140.205 34.387 140.205 35.781V41H137.723ZM134.935 41.136C134.221 41.136 133.609 41.017 133.099 40.779C132.589 40.5297 132.198 40.1953 131.926 39.776C131.654 39.3567 131.518 38.8863 131.518 38.365C131.518 37.821 131.648 37.345 131.909 36.937C132.181 36.529 132.606 36.2117 133.184 35.985C133.762 35.747 134.515 35.628 135.445 35.628H137.876V37.175H135.734C135.11 37.175 134.68 37.277 134.442 37.481C134.215 37.685 134.102 37.94 134.102 38.246C134.102 38.586 134.232 38.858 134.493 39.062C134.765 39.2547 135.133 39.351 135.598 39.351C136.04 39.351 136.436 39.249 136.788 39.045C137.139 38.8297 137.394 38.518 137.553 38.11L137.961 39.334C137.768 39.9233 137.417 40.371 136.907 40.677C136.397 40.983 135.739 41.136 134.935 41.136Z" fill="white"/>
</svg>
