<svg width="356" height="227" viewBox="0 0 356 227" fill="none" xmlns="http://www.w3.org/2000/svg">
<rect x="7" y="8" width="349" height="219" rx="7" fill="#716F6C"/>
<rect width="349" height="219" rx="7" fill="#9E5959"/>
<rect x="18" y="38" width="196" height="142" fill="#FEF8EB"/>
<rect x="233" y="16" width="98" height="186" fill="#FEF8EB"/>
<path d="M282 162L241.297 49.5L322.703 49.5L282 162Z" fill="#D3838D"/>
<path d="M281.5 113L248 29L315 29L281.5 113Z" fill="#FEF8EB"/>
<circle cx="281.5" cy="175.5" r="16.5" fill="#E2CA77"/>
<path d="M57.7505 87.614H66.3232" stroke="#837B7B" stroke-width="3" stroke-linecap="round"/>
<path d="M62.3049 89.1824C62.3049 91.814 62.5563 94.5821 62.2453 97.1988C61.8661 100.39 55.5719 97.9448 54 97.0246" stroke="#837B7B" stroke-width="3" stroke-linecap="round"/>
<path d="M71.6814 89.7053C72.193 89.7053 72.3958 89.8796 72.753 90.2281" stroke="#837B7B" stroke-width="3" stroke-linecap="round"/>
<path d="M72.217 94.9333V99.6386" stroke="#837B7B" stroke-width="3" stroke-linecap="round"/>
<path d="M83.7366 95.1947C82.4835 95.1947 80.6985 94.8577 79.5991 95.4707C78.277 96.2078 76.5488 101.808 78.5424 101.977C82.4984 102.312 84.0727 98.9644 84.2724 95.4561C84.3376 94.3108 85.7179 96.348 86.0584 96.676C87.6345 98.1939 89.178 99.1463 91.2378 99.9" stroke="#837B7B" stroke-width="3" stroke-linecap="round"/>
<path d="M96.0598 95.979H99.8104" stroke="#837B7B" stroke-width="3" stroke-linecap="round"/>
<path d="M107 88H119.591" stroke="#837B7B" stroke-width="3" stroke-linecap="round"/>
<path d="M108.608 89.5684C108.608 92.741 107.571 97.8763 110.007 100.344C111.407 101.763 111.604 102.116 113.698 102.116C115.099 102.116 117.594 102.631 118.788 101.854" stroke="#837B7B" stroke-width="3" stroke-linecap="round"/>
<path d="M109.411 96.1035H116.912" stroke="#837B7B" stroke-width="3" stroke-linecap="round"/>
<path d="M122.002 96.1035C122.002 97.6961 122.002 102.474 122.002 100.881C122.002 99.0619 121.949 97.2362 122.27 95.4355C122.39 94.7642 122.894 91.9153 123.759 91.6742C126.097 91.0222 128.171 92.3679 128.908 94.477C129.59 96.4256 130.063 98.5329 130.575 100.533C130.723 101.109 130.843 101.504 130.843 102.116" stroke="#837B7B" stroke-width="3" stroke-linecap="round"/>
<path d="M144.818 85C144.818 87.9335 144.818 90.8671 144.818 93.8006C144.818 96.1201 144.769 98.2981 145.681 100.481C146.387 102.172 152.645 100.161 154.194 100.161" stroke="#837B7B" stroke-width="3" stroke-linecap="round"/>
<path d="M155.533 96.2404C157.255 96.2404 158.002 96.6839 157.945 94.7881C157.906 93.5209 153.732 93.5925 152.795 93.6263C151.461 93.6745 151.018 97.025 151.366 97.9831C152.412 100.859 156.478 101.991 159.284 101.991" stroke="#837B7B" stroke-width="3" stroke-linecap="round"/>
<path d="M164.106 97.286C163.879 97.033 164.126 96.3692 164.106 95.9789C164.068 95.2288 163.242 93.9726 162.633 93.5101C161.314 92.5093 160.356 94.4316 160.356 95.4561C160.356 100.11 166.175 102.401 170 100.161" stroke="#837B7B" stroke-width="3" stroke-linecap="round"/>
<path d="M94.2087 115.285V128.348" stroke="#837B7B" stroke-width="2" stroke-linecap="round"/>
<path d="M94 116.356C94 118.857 94.6965 120.574 96.296 122.519C98.2386 124.881 100.004 124.014 101.259 121.139C102.119 119.168 102.141 117.016 102.141 114.904C102.141 113.399 102.141 116.733 102.141 116.974C102.141 119.658 102.214 122.329 102.558 124.993C102.673 125.888 102.975 126.801 102.975 127.706" stroke="#837B7B" stroke-width="2" stroke-linecap="round"/>
<path d="M109.029 123.851C107.503 123.851 105.95 124.013 105.898 125.993C105.875 126.863 105.597 127.582 105.805 128.467C105.995 129.275 106.391 131.244 107.405 129.967C108.425 128.682 109.028 126.962 109.956 125.576C110.231 125.166 110.339 124.382 110.745 124.922C111.623 126.09 112.754 127.065 113.505 128.325C113.777 128.781 114.173 129.251 114.664 129.419" stroke="#837B7B" stroke-width="2" stroke-linecap="round"/>
<path d="M114.271 123.851H119.907" stroke="#837B7B" stroke-width="2" stroke-linecap="round"/>
<path d="M115.291 119.782V128.134" stroke="#837B7B" stroke-width="2" stroke-linecap="round"/>
<path d="M120.092 114C120.092 118.196 120.092 122.392 120.092 126.588C120.092 127.9 120.085 129.211 120.254 130.514C120.277 130.689 120.287 131.345 120.3 130.776C120.331 129.438 120.514 127.439 121.182 126.255C121.574 125.557 123.044 123.264 124.057 124.303C125.197 125.473 125.442 127.683 125.936 129.205" stroke="#837B7B" stroke-width="2" stroke-linecap="round"/>
<path d="M146.351 117.461C146.231 116.358 144.322 116.605 143.649 116.605C140.972 116.605 140.53 121.477 140.53 123.458C140.53 124.997 140.765 128.152 142.686 128.645C144.151 129.021 145.723 128.812 146.977 127.955" stroke="#837B7B" stroke-width="2" stroke-linecap="round"/>
<path d="M145.516 123.029C146.266 123.029 147.015 123.029 147.765 123.029C148.511 123.029 148.29 123.124 148.183 123.815C147.825 126.127 147.248 128.638 147.812 130.953" stroke="#837B7B" stroke-width="2" stroke-linecap="round"/>
<path d="M156.711 124.311C155.484 124.171 153.815 123.731 152.866 124.889C151.772 126.224 149.966 128.959 152.167 130.088C153.85 130.952 155.451 128.89 156.012 127.498C156.268 126.861 156.266 125.806 157.021 126.721C157.862 127.741 158.705 128.812 159.506 129.869" stroke="#837B7B" stroke-width="2" stroke-linecap="round"/>
<path d="M161.079 124.311C161.079 125.174 161.079 126.037 161.079 126.901C161.079 128.202 161.051 127.994 161.351 126.761C161.737 125.179 162.013 123.711 163.176 122.518C164.588 121.07 165.639 123.71 165.953 124.67C166.075 125.043 166.183 127.403 166.584 126.901C167.112 126.238 167.419 125.144 168.254 124.769C169.404 124.253 170.495 124.045 171.04 125.387C171.329 126.098 171.739 127.278 171.739 128.076" stroke="#837B7B" stroke-width="2" stroke-linecap="round"/>
<path d="M174.535 126.462C178.086 126.462 175.81 122.348 173.671 122.897C172.982 123.073 172.787 124.218 172.787 124.809C172.787 126.068 173.157 127.022 173.923 128.036C175.613 130.273 179.702 131.584 181 128.255" stroke="#837B7B" stroke-width="2" stroke-linecap="round"/>
<path d="M87.24 128.046C87.24 129.84 86.8943 131.24 86.1221 132.825" stroke="#837B7B" stroke-width="2" stroke-linecap="round"/>
<path d="M132.58 128.51C132.58 130.253 132.616 131.553 131.558 133" stroke="#837B7B" stroke-width="2" stroke-linecap="round"/>
<path d="M69.3568 118.06C67.9831 118.06 66.494 117.897 65.1358 118.108C64.115 118.267 62.4238 118.694 62.2136 119.916C61.9153 121.651 62.0009 123.539 62.0512 125.294C62.1182 127.631 63.0364 129.951 65.4373 130.315C66.6965 130.506 68.7298 130.91 69.7743 130.053" stroke="#837B7B" stroke-width="2" stroke-linecap="round"/>
<path d="M77.706 119.774C76.2091 119.774 74.1914 119.434 73.1603 120.844C71.3964 123.257 74.6787 125.128 76.6623 125.128C77.4277 125.128 78.193 125.128 78.9584 125.128C79.9479 125.128 79.5917 127.357 79.5845 128.007C79.5574 130.456 78.633 129.685 77.0798 130.481" stroke="#837B7B" stroke-width="2" stroke-linecap="round"/>
<path d="M260 26C260 30.2112 260 34.4224 260 38.6336C260 39.3728 260 41.5904 260 40.8512C260 38.8389 260.221 36.9283 261.085 35.0567C261.41 34.3535 262.918 31.9151 263.915 33.1108C264.994 34.4057 265.576 36.4904 265.775 38.0827C265.845 38.6406 265.738 39.2941 266 39.7782" stroke="#837B7B" stroke-width="2" stroke-linecap="round"/>
<path d="M269.1 33.6815C269.1 35.2775 268.554 38.2355 270.014 39.3814C270.986 40.1445 272.216 40.2468 273.206 39.4334C274.146 38.6602 274 36.9617 273.98 35.9258C273.964 35.0824 273.265 34.3597 272.663 33.8153C272.221 33.4148 270.414 32.6886 269.937 33.1464" stroke="#837B7B" stroke-width="2" stroke-linecap="round"/>
<path d="M277.062 33.0198C277.062 35.5824 276.817 38.2661 277.299 40.7648C277.527 41.9479 277.424 38.3447 277.522 37.138C277.624 35.8787 277.796 34.6379 278.374 33.5346C278.712 32.8892 279.547 32.9933 280.112 33.0276C281.508 33.1124 282.31 34.6313 282.85 35.9914C283.225 36.9352 283.523 37.983 283.73 38.9943C283.788 39.279 283.802 39.9252 284 40.0394" stroke="#837B7B" stroke-width="2" stroke-linecap="round"/>
<path d="M288.083 34.011C287.734 34.011 287.465 33.9351 287.252 34.1821C286.841 34.6573 286.527 35.1482 286.371 35.7415C286.031 37.0353 285.641 38.0005 286.625 39.0822C286.945 39.4344 287.95 39.8506 288.421 39.919C288.864 39.9833 289.747 40.0694 290.154 39.9063C291.062 39.5436 290.995 37.8646 291 37.1805C291.01 35.835 289.889 34.6956 288.337 34.6956" stroke="#837B7B" stroke-width="2" stroke-linecap="round"/>
<path d="M294.03 33.2901C294.03 35.1965 293.933 37.1344 294.088 39.0347C294.094 39.1158 294.244 40.061 294.257 39.9969C294.451 39.0373 294.101 37.997 294.386 37.0319C294.813 35.5868 295.87 33.7832 297.183 33.062C297.371 32.9585 297.917 32.9798 298 33.1618" stroke="#837B7B" stroke-width="2" stroke-linecap="round"/>
<path d="M304.953 33.055C303.82 33.055 302.241 32.7363 301.369 33.6331C300.906 34.1093 300.986 35.1008 301.046 35.6998C301.177 37.0157 303.664 37.1798 304.658 37.2172C305.265 37.2401 306.11 37.1978 306.696 37.3762C307.271 37.5515 306.885 38.4874 306.717 38.8431C305.884 40.6085 302.96 39.9242 301.538 39.5585" stroke="#837B7B" stroke-width="2" stroke-linecap="round"/>
</svg>
