<svg width="356" height="227" viewBox="0 0 356 227" fill="none" xmlns="http://www.w3.org/2000/svg">
<rect x="7" y="8" width="349" height="219" rx="7" fill="#716F6C"/>
<rect width="349" height="219" rx="7" fill="#9E5959"/>
<rect x="18" y="38" width="196" height="142" fill="#FEF8EB"/>
<rect x="233" y="16" width="98" height="186" fill="#FEF8EB"/>
<path d="M282 154L241.297 41.5L322.703 41.5L282 154Z" fill="#D3838D"/>
<path d="M281.5 105L248 21L315 21L281.5 105Z" fill="#FEF8EB"/>
<circle cx="281.5" cy="167.5" r="16.5" fill="#E2CA77"/>
<path d="M57.7505 87.614H66.3232" stroke="#837B7B" stroke-width="3" stroke-linecap="round"/>
<path d="M62.3049 89.1824C62.3049 91.814 62.5563 94.5821 62.2453 97.1988C61.8661 100.39 55.5719 97.9448 54 97.0246" stroke="#837B7B" stroke-width="3" stroke-linecap="round"/>
<path d="M71.6814 89.7053C72.193 89.7053 72.3958 89.8796 72.753 90.2281" stroke="#837B7B" stroke-width="3" stroke-linecap="round"/>
<path d="M72.217 94.9333V99.6386" stroke="#837B7B" stroke-width="3" stroke-linecap="round"/>
<path d="M83.7366 95.1947C82.4835 95.1947 80.6985 94.8577 79.5991 95.4707C78.277 96.2078 76.5488 101.808 78.5424 101.977C82.4984 102.312 84.0727 98.9644 84.2724 95.4561C84.3376 94.3108 85.7179 96.348 86.0584 96.676C87.6345 98.1939 89.178 99.1463 91.2378 99.9" stroke="#837B7B" stroke-width="3" stroke-linecap="round"/>
<path d="M96.0598 95.979H99.8104" stroke="#837B7B" stroke-width="3" stroke-linecap="round"/>
<path d="M107 88H119.591" stroke="#837B7B" stroke-width="3" stroke-linecap="round"/>
<path d="M108.608 89.5684C108.608 92.741 107.571 97.8763 110.007 100.344C111.407 101.763 111.604 102.116 113.698 102.116C115.099 102.116 117.594 102.631 118.788 101.854" stroke="#837B7B" stroke-width="3" stroke-linecap="round"/>
<path d="M109.411 96.1035H116.912" stroke="#837B7B" stroke-width="3" stroke-linecap="round"/>
<path d="M122.002 96.1035C122.002 97.6961 122.002 102.474 122.002 100.881C122.002 99.0619 121.949 97.2362 122.27 95.4355C122.39 94.7642 122.894 91.9153 123.759 91.6742C126.097 91.0222 128.171 92.3679 128.908 94.477C129.59 96.4256 130.063 98.5329 130.575 100.533C130.723 101.109 130.843 101.504 130.843 102.116" stroke="#837B7B" stroke-width="3" stroke-linecap="round"/>
<path d="M144.818 85C144.818 87.9335 144.818 90.8671 144.818 93.8006C144.818 96.1201 144.769 98.2981 145.681 100.481C146.387 102.172 152.645 100.161 154.194 100.161" stroke="#837B7B" stroke-width="3" stroke-linecap="round"/>
<path d="M155.533 96.2404C157.255 96.2404 158.002 96.6839 157.945 94.7881C157.906 93.5209 153.732 93.5925 152.795 93.6263C151.461 93.6745 151.018 97.025 151.366 97.9831C152.412 100.859 156.478 101.991 159.284 101.991" stroke="#837B7B" stroke-width="3" stroke-linecap="round"/>
<path d="M164.106 97.286C163.879 97.033 164.126 96.3692 164.106 95.9789C164.068 95.2288 163.242 93.9726 162.633 93.5101C161.314 92.5093 160.356 94.4316 160.356 95.4561C160.356 100.11 166.175 102.401 170 100.161" stroke="#837B7B" stroke-width="3" stroke-linecap="round"/>
<path d="M50.2087 115.285V128.348" stroke="#837B7B" stroke-width="2" stroke-linecap="round"/>
<path d="M50 116.356C50 118.857 50.6965 120.574 52.296 122.519C54.2386 124.881 56.0044 124.014 57.2592 121.139C58.1191 119.168 58.1405 117.016 58.1405 114.904C58.1405 113.399 58.1405 116.733 58.1405 116.974C58.1405 119.658 58.2143 122.329 58.558 124.993C58.6734 125.888 58.9754 126.801 58.9754 127.706" stroke="#837B7B" stroke-width="2" stroke-linecap="round"/>
<path d="M65.0287 123.851C63.503 123.851 61.9499 124.013 61.8977 125.993C61.8748 126.863 61.5967 127.582 61.805 128.467C61.9949 129.275 62.3908 131.244 63.4052 129.967C64.4254 128.682 65.028 126.962 65.9564 125.576C66.2314 125.166 66.3393 124.382 66.7449 124.922C67.6232 126.09 68.7544 127.065 69.5048 128.325C69.7768 128.781 70.173 129.251 70.6644 129.419" stroke="#837B7B" stroke-width="2" stroke-linecap="round"/>
<path d="M70.271 123.851H75.9067" stroke="#837B7B" stroke-width="2" stroke-linecap="round"/>
<path d="M71.2908 119.782V128.134" stroke="#837B7B" stroke-width="2" stroke-linecap="round"/>
<path d="M76.0916 114C76.0916 118.196 76.0916 122.392 76.0916 126.588C76.0916 127.9 76.0846 129.211 76.2539 130.514C76.2767 130.689 76.2874 131.345 76.3003 130.776C76.3306 129.438 76.5144 127.439 77.1816 126.255C77.5743 125.557 79.0441 123.264 80.0575 124.303C81.1975 125.473 81.4416 127.683 81.9361 129.205" stroke="#837B7B" stroke-width="2" stroke-linecap="round"/>
<path d="M110.604 116.998C109.231 116.998 107.742 116.835 106.383 117.046C105.363 117.204 103.671 117.632 103.461 118.854C103.163 120.588 103.248 122.476 103.299 124.232C103.366 126.569 104.284 128.889 106.685 129.253C107.944 129.443 109.977 129.848 111.022 128.991" stroke="#837B7B" stroke-width="2" stroke-linecap="round"/>
<path d="M118.954 118.711C117.457 118.711 115.439 118.372 114.408 119.782C112.644 122.195 115.926 124.065 117.91 124.065C118.675 124.065 119.441 124.065 120.206 124.065C121.196 124.065 120.839 126.294 120.832 126.945C120.805 129.394 119.881 128.622 118.327 129.419" stroke="#837B7B" stroke-width="2" stroke-linecap="round"/>
<path d="M146.351 117.461C146.231 116.358 144.322 116.605 143.649 116.605C140.972 116.605 140.53 121.477 140.53 123.458C140.53 124.997 140.765 128.152 142.686 128.645C144.151 129.021 145.723 128.812 146.977 127.955" stroke="#837B7B" stroke-width="2" stroke-linecap="round"/>
<path d="M145.516 123.029C146.266 123.029 147.015 123.029 147.765 123.029C148.511 123.029 148.29 123.124 148.183 123.815C147.825 126.127 147.248 128.638 147.812 130.953" stroke="#837B7B" stroke-width="2" stroke-linecap="round"/>
<path d="M156.711 124.311C155.484 124.171 153.815 123.731 152.866 124.889C151.772 126.224 149.966 128.959 152.167 130.088C153.85 130.952 155.451 128.89 156.012 127.498C156.268 126.861 156.266 125.806 157.021 126.721C157.862 127.741 158.705 128.812 159.506 129.869" stroke="#837B7B" stroke-width="2" stroke-linecap="round"/>
<path d="M161.079 124.311C161.079 125.174 161.079 126.037 161.079 126.901C161.079 128.202 161.051 127.994 161.351 126.761C161.737 125.179 162.013 123.711 163.176 122.518C164.588 121.07 165.639 123.71 165.953 124.67C166.075 125.043 166.183 127.403 166.584 126.901C167.112 126.238 167.419 125.144 168.254 124.769C169.404 124.253 170.495 124.045 171.04 125.387C171.329 126.098 171.739 127.278 171.739 128.076" stroke="#837B7B" stroke-width="2" stroke-linecap="round"/>
<path d="M174.535 126.462C178.086 126.462 175.81 122.348 173.671 122.897C172.982 123.073 172.787 124.218 172.787 124.809C172.787 126.068 173.157 127.022 173.923 128.036C175.613 130.273 179.702 131.584 181 128.255" stroke="#837B7B" stroke-width="2" stroke-linecap="round"/>
<path d="M92.24 128.046C92.24 129.84 91.8943 131.24 91.1221 132.825" stroke="#837B7B" stroke-width="2" stroke-linecap="round"/>
<path d="M132.58 128.51C132.58 130.253 132.616 131.553 131.558 133" stroke="#837B7B" stroke-width="2" stroke-linecap="round"/>
</svg>
