<svg width="197" height="84" viewBox="0 0 197 84" fill="none" xmlns="http://www.w3.org/2000/svg">
<rect x="13" y="24" width="176" height="60" fill="#716F6C"/>
<rect x="11" y="21" width="175" height="60" fill="white"/>
<path d="M67.5 51V22.6611H96H124.5V51V79.338H96H67.5V51ZM88.4322 78.486C88.4322 78.372 87.5988 77.505 86.5806 76.56L84.7287 74.841L87.4134 74.835L90.0981 74.832L92.1102 76.764L94.1226 78.696H105.126C111.177 78.696 116.127 78.579 116.127 78.441C116.127 78.3 115.476 77.544 114.678 76.764L113.229 75.342V71.544V67.746H116.268C117.942 67.746 119.376 67.638 119.457 67.503C119.757 67.017 117.813 63.357 116.799 62.505C116.226 62.022 115.188 61.536 114.492 61.425L113.229 61.224V43.8741V26.5254H96H78.7713V37.1526V47.7798H81.6516H84.5319L87.1617 44.64C88.608 42.9132 90.174 41.2476 90.6414 40.9386C91.3803 40.4505 92.355 40.377 98.094 40.377C106.068 40.377 105.792 40.2597 108.462 44.7876C110.55 48.3345 110.754 49.4184 109.488 50.2488C108.741 50.7387 108.555 50.7486 107.829 50.337C107.382 50.0817 106.296 48.6051 105.417 47.0553L103.818 44.2374H101.598C100.38 44.2374 99.381 44.3109 99.381 44.4009C99.381 44.4909 100.2 46.266 101.199 48.3459L103.017 52.128L103.374 57.12L103.728 62.109L109.365 62.274C115.497 62.451 116.07 62.601 117.108 64.305C118.464 66.528 118.728 66.459 109.02 66.459C101.382 66.459 100.236 66.393 99.774 65.931C99.279 65.436 98.835 61.485 98.76 56.877C98.748 56.124 98.625 55.509 98.487 55.509C98.352 55.509 96.45 59.094 94.2612 63.48C92.0727 67.863 89.9877 71.772 89.6277 72.168C89.2674 72.564 88.4559 72.987 87.8241 73.104C86.454 73.362 84.3051 73.389 84.0678 73.149C83.9748 73.056 86.0781 68.628 88.7415 63.303C91.4052 57.981 93.5844 53.556 93.5844 53.472C93.5844 53.274 90.6726 47.0223 90.4971 46.8426C90.4263 46.7697 90.0678 47.0598 89.7009 47.4867C89.334 47.9136 88.3728 49.0236 87.5649 49.9536L86.0961 51.645H82.4334H78.7707V63.468V75.294L80.4504 76.995L82.1301 78.696H85.281C87.0138 78.696 88.4319 78.6 88.4319 78.486H88.4322ZM89.8407 39.0903C88.9611 38.7351 87.8367 37.155 87.5916 35.9298C87.3375 34.6581 88.2633 32.7489 89.4258 32.1477C89.9244 31.8897 90.9339 31.6788 91.6689 31.6788C92.7591 31.6788 93.2067 31.8804 94.1001 32.7738C94.9935 33.6672 95.1948 34.1145 95.1948 35.205C95.1948 36.9873 94.4967 38.241 93.1476 38.8812C91.9389 39.4548 90.9054 39.5202 89.8404 39.0903H89.8407Z" fill="#008855"/>
<path d="M12.5 22.5H69.5V79.5H12.5V22.5Z" fill="#008855"/>
<path d="M53.5156 31.5459L40.0624 44.9991H62.7124V56.9991H40.2124L53.6656 70.4523H38.8156L19.2874 50.9241L38.6656 31.5459H53.5156Z" fill="white"/>
<rect x="124" y="22.7" width="60" height="56.8" fill="#008855"/>
<path d="M128.638 60V44.544H139.414V46.584H131.254V51.264H138.526V53.28H131.254V57.984H139.414V60H128.638ZM140.444 60L145.964 52.296L140.564 44.544H143.588L147.524 50.28L151.46 44.544H154.508L149.084 52.296L154.604 60H151.532L147.524 54.336L143.516 60H140.444ZM156.397 60V44.544H159.013V60H156.397ZM165.754 60V46.584H160.81V44.544H173.29V46.584H168.37V60H165.754Z" fill="white"/>
<rect width="197" height="24" fill="#C1BEB8"/>
<path d="M0 24H197L187.766 27H7.69531L0 24Z" fill="#716F6C"/>
</svg>
