<svg width="60" height="60" viewBox="0 0 60 60" fill="none" xmlns="http://www.w3.org/2000/svg">
<g clip-path="url(#clip0_34_1805)">
<path d="M60 0H0V60H60V0Z" fill="white"/>
<path d="M1.5 30V1.6611H30H58.5V30V58.338H30H1.5V30ZM22.4322 57.486C22.4322 57.372 21.5988 56.505 20.5806 55.56L18.7287 53.841L21.4134 53.835L24.0981 53.832L26.1102 55.764L28.1226 57.696H39.126C45.177 57.696 50.127 57.579 50.127 57.441C50.127 57.3 49.476 56.544 48.678 55.764L47.229 54.342V50.544V46.746H50.268C51.942 46.746 53.376 46.638 53.457 46.503C53.757 46.017 51.813 42.357 50.799 41.505C50.226 41.022 49.188 40.536 48.492 40.425L47.229 40.224V22.8741V5.5254H30H12.7713V16.1526V26.7798H15.6516H18.5319L21.1617 23.64C22.608 21.9132 24.174 20.2476 24.6414 19.9386C25.3803 19.4505 26.355 19.377 32.094 19.377C40.068 19.377 39.792 19.2597 42.462 23.7876C44.55 27.3345 44.754 28.4184 43.488 29.2488C42.741 29.7387 42.555 29.7486 41.829 29.337C41.382 29.0817 40.296 27.6051 39.417 26.0553L37.818 23.2374H35.598C34.38 23.2374 33.381 23.3109 33.381 23.4009C33.381 23.4909 34.2 25.266 35.199 27.3459L37.017 31.128L37.374 36.12L37.728 41.109L43.365 41.274C49.497 41.451 50.07 41.601 51.108 43.305C52.464 45.528 52.728 45.459 43.02 45.459C35.382 45.459 34.236 45.393 33.774 44.931C33.279 44.436 32.835 40.485 32.76 35.877C32.748 35.124 32.625 34.509 32.487 34.509C32.352 34.509 30.45 38.094 28.2612 42.48C26.0727 46.863 23.9877 50.772 23.6277 51.168C23.2674 51.564 22.4559 51.987 21.8241 52.104C20.454 52.362 18.3051 52.389 18.0678 52.149C17.9748 52.056 20.0781 47.628 22.7415 42.303C25.4052 36.981 27.5844 32.556 27.5844 32.472C27.5844 32.274 24.6726 26.0223 24.4971 25.8426C24.4263 25.7697 24.0678 26.0598 23.7009 26.4867C23.334 26.9136 22.3728 28.0236 21.5649 28.9536L20.0961 30.645H16.4334H12.7707V42.468V54.294L14.4504 55.995L16.1301 57.696H19.281C21.0138 57.696 22.4319 57.6 22.4319 57.486H22.4322ZM23.8407 18.0903C22.9611 17.7351 21.8367 16.155 21.5916 14.9298C21.3375 13.6581 22.2633 11.7489 23.4258 11.1477C23.9244 10.8897 24.9339 10.6788 25.6689 10.6788C26.7591 10.6788 27.2067 10.8804 28.1001 11.7738C28.9935 12.6672 29.1948 13.1145 29.1948 14.205C29.1948 15.9873 28.4967 17.241 27.1476 17.8812C25.9389 18.4548 24.9054 18.5202 23.8404 18.0903H23.8407Z" fill="#008855"/>
</g>
<defs>
<clipPath id="clip0_34_1805">
<rect width="60" height="60" fill="white"/>
</clipPath>
</defs>
</svg>
