<svg width="177" height="60" viewBox="0 0 177 60" fill="none" xmlns="http://www.w3.org/2000/svg">
<rect x="1" width="176" height="60" fill="white"/>
<path d="M58.5 30V1.66107H87H115.5V30V58.338H87H58.5V30ZM79.4322 57.486C79.4322 57.372 78.5988 56.505 77.5806 55.56L75.7287 53.841L78.4134 53.835L81.0981 53.832L83.1102 55.764L85.1226 57.696H96.126C102.177 57.696 107.127 57.579 107.127 57.441C107.127 57.3 106.476 56.544 105.678 55.764L104.229 54.342V50.544V46.746H107.268C108.942 46.746 110.376 46.638 110.457 46.503C110.757 46.017 108.813 42.357 107.799 41.505C107.226 41.022 106.188 40.536 105.492 40.425L104.229 40.224V22.8741V5.52537H87H69.7713V16.1526V26.7798H72.6516H75.5319L78.1617 23.64C79.608 21.9132 81.174 20.2476 81.6414 19.9386C82.3803 19.4505 83.355 19.377 89.094 19.377C97.068 19.377 96.792 19.2597 99.462 23.7876C101.55 27.3345 101.754 28.4184 100.488 29.2488C99.741 29.7387 99.555 29.7486 98.829 29.337C98.382 29.0817 97.296 27.6051 96.417 26.0553L94.818 23.2374H92.598C91.38 23.2374 90.381 23.3109 90.381 23.4009C90.381 23.4909 91.2 25.266 92.199 27.3459L94.017 31.128L94.374 36.12L94.728 41.109L100.365 41.274C106.497 41.451 107.07 41.601 108.108 43.305C109.464 45.528 109.728 45.459 100.02 45.459C92.382 45.459 91.236 45.393 90.774 44.931C90.279 44.436 89.835 40.485 89.76 35.877C89.748 35.124 89.625 34.509 89.487 34.509C89.352 34.509 87.45 38.094 85.2612 42.48C83.0727 46.863 80.9877 50.772 80.6277 51.168C80.2674 51.564 79.4559 51.987 78.8241 52.104C77.454 52.362 75.3051 52.389 75.0678 52.149C74.9748 52.056 77.0781 47.628 79.7415 42.303C82.4052 36.981 84.5844 32.556 84.5844 32.472C84.5844 32.274 81.6726 26.0223 81.4971 25.8426C81.4263 25.7697 81.0678 26.0598 80.7009 26.4867C80.334 26.9136 79.3728 28.0236 78.5649 28.9536L77.0961 30.645H73.4334H69.7707V42.468V54.294L71.4504 55.995L73.1301 57.696H76.281C78.0138 57.696 79.4319 57.6 79.4319 57.486H79.4322ZM80.8407 18.0903C79.9611 17.7351 78.8367 16.155 78.5916 14.9298C78.3375 13.6581 79.2633 11.7489 80.4258 11.1477C80.9244 10.8897 81.9339 10.6788 82.6689 10.6788C83.7591 10.6788 84.2067 10.8804 85.1001 11.7738C85.9935 12.6672 86.1948 13.1145 86.1948 14.205C86.1948 15.9873 85.4967 17.241 84.1476 17.8812C82.9389 18.4548 81.9054 18.5202 80.8404 18.0903H80.8407Z" fill="#008855"/>
<path d="M3.5 1.5H60.5V58.5H3.5V1.5Z" fill="#008855"/>
<path d="M44.5156 10.5459L31.0624 23.9991H53.7124V35.9991H31.2124L44.6656 49.4523H29.8156L10.2874 29.9241L29.6656 10.5459H44.5156Z" fill="white"/>
<rect x="115" y="1.70001" width="60" height="56.8" fill="#008855"/>
<path d="M119.638 39V23.544H130.414V25.584H122.254V30.264H129.526V32.28H122.254V36.984H130.414V39H119.638ZM131.444 39L136.964 31.296L131.564 23.544H134.588L138.524 29.28L142.46 23.544H145.508L140.084 31.296L145.604 39H142.532L138.524 33.336L134.516 39H131.444ZM147.397 39V23.544H150.013V39H147.397ZM156.754 39V25.584H151.81V23.544H164.29V25.584H159.37V39H156.754Z" fill="white"/>
</svg>
