<svg width="84" height="99" viewBox="0 0 84 99" fill="none" xmlns="http://www.w3.org/2000/svg">
<rect x="21.2935" y="4.93256" width="95" height="25" transform="rotate(57.4336 21.2935 4.93256)" fill="#998D73"/>
<ellipse cx="19.9586" cy="9.34489" rx="3" ry="12.5" transform="rotate(57.4336 19.9586 9.34489)" fill="#D0C5AF"/>
<rect x="20.2168" y="3.24707" width="104" height="8" transform="rotate(57.4336 20.2168 3.24707)" fill="#624A38"/>
<ellipse cx="16.8456" cy="5.4002" rx="2" ry="4" transform="rotate(57.4336 16.8456 5.4002)" fill="#624A38"/>
<ellipse cx="72.8263" cy="93.0481" rx="3" ry="4" transform="rotate(57.4336 72.8263 93.0481)" fill="#624A38"/>
<rect x="30.4932" y="2.61639" width="95" height="25" transform="rotate(57.4336 30.4932 2.61639)" fill="#BDAE8F"/>
<path d="M21.5733 11.8733C15.7552 15.5893 10.3157 17.4697 9.42383 16.0734C8.53199 14.6771 14.1403 13.0609 19.9584 9.34492C25.7765 5.6289 29.6012 1.22015 30.493 2.61649C31.3849 4.01284 27.3914 8.15723 21.5733 11.8733Z" fill="#D0C5AF"/>
<ellipse cx="71.0949" cy="89.4079" rx="3" ry="12.5" transform="rotate(57.4336 71.0949 89.4079)" fill="#BDAE8F"/>
</svg>
