<svg width="135" height="64" viewBox="0 0 135 64" fill="none" xmlns="http://www.w3.org/2000/svg">
<path d="M124.348 60.2448C126.634 60.1896 128.738 58.9864 129.946 57.0443V57.0443C132.984 52.1566 128.939 45.9438 123.24 46.745L7.06909 63.0757L124.348 60.2448Z" fill="#766F6F"/>
<rect x="0.813477" y="10.5172" width="35.3978" height="53.0967" rx="10" transform="rotate(-4.41779 0.813477 10.5172)" fill="#16C2DE"/>
<rect x="0.813477" y="10.5172" width="35.3978" height="53.0967" rx="10" transform="rotate(-4.41779 0.813477 10.5172)" fill="#16C2DE"/>
<rect x="94.9272" y="3.24611" width="35.3978" height="53.0967" rx="10" transform="rotate(-4.41779 94.9272 3.24611)" fill="#16C2DE"/>
<rect x="94.9272" y="3.24611" width="35.3978" height="53.0967" rx="10" transform="rotate(-4.41779 94.9272 3.24611)" fill="#F4574C"/>
<rect x="18.4597" y="9.15382" width="94.3941" height="53.0967" transform="rotate(-4.41779 18.4597 9.15382)" fill="#252525"/>
<circle cx="11.0896" cy="24.8121" r="4.42473" transform="rotate(-4.41779 11.0896 24.8121)" fill="#252525"/>
<ellipse cx="9.1495" cy="41.8261" rx="1.76989" ry="1.76989" transform="rotate(-4.41779 9.1495 41.8261)" fill="#252525"/>
<ellipse cx="12.4061" cy="38.0242" rx="1.76989" ry="1.76989" transform="rotate(-4.41779 12.4061 38.0242)" fill="#252525"/>
<ellipse cx="16.2081" cy="41.2808" rx="1.76989" ry="1.76989" transform="rotate(-4.41779 16.2081 41.2808)" fill="#252525"/>
<ellipse cx="12.9515" cy="45.0827" rx="1.76989" ry="1.76989" transform="rotate(-4.41779 12.9515 45.0827)" fill="#252525"/>
<ellipse cx="119.049" cy="16.7673" rx="1.76989" ry="1.76989" transform="rotate(-4.41779 119.049 16.7673)" fill="#252525"/>
<ellipse cx="122.306" cy="12.9653" rx="1.76989" ry="1.76989" transform="rotate(-4.41779 122.306 12.9653)" fill="#252525"/>
<ellipse cx="126.108" cy="16.2219" rx="1.76989" ry="1.76989" transform="rotate(-4.41779 126.108 16.2219)" fill="#252525"/>
<ellipse cx="122.851" cy="20.0239" rx="1.76989" ry="1.76989" transform="rotate(-4.41779 122.851 20.0239)" fill="#252525"/>
<circle cx="123.625" cy="33.8695" r="4.42473" transform="rotate(-4.41779 123.625 33.8695)" fill="#252525"/>
</svg>
