<svg width="178" height="104" viewBox="0 0 178 104" fill="none" xmlns="http://www.w3.org/2000/svg">
<rect x="5.36133" y="6" width="172.639" height="98" fill="#716F6C"/>
<rect width="172.639" height="98" fill="#FEF8EB"/>
<path d="M16.326 34V20.5H21.906V22.93H18.756V27.25H21.42V29.68H18.756V34H16.326ZM22.4363 34L24.9923 20.5H27.6203L30.1223 34H27.6383L27.3323 31.894H25.2443L24.9203 34H22.4363ZM25.6043 29.464H26.9723L26.1443 23.776H26.4683L25.6043 29.464ZM34.1368 20.5V31.57H36.9268V34H31.7068V20.5H34.1368ZM40.9396 20.5V31.57H43.7296V34H38.5096V20.5H40.9396ZM49.6365 34V20.5H52.9665C53.9865 20.5 54.7965 20.806 55.3965 21.418C55.9965 22.024 56.2965 22.828 56.2965 23.83V30.67C56.2965 31.666 55.9965 32.47 55.3965 33.082C54.7965 33.694 53.9865 34 52.9665 34H49.6365ZM52.0665 31.57H52.9665C53.2545 31.57 53.4765 31.489 53.6325 31.327C53.7885 31.159 53.8665 30.94 53.8665 30.67V23.83C53.8665 23.56 53.7885 23.344 53.6325 23.182C53.4765 23.014 53.2545 22.93 52.9665 22.93H52.0665V31.57ZM64.2341 20.5V22.93H61.0841V25.63H63.7481V28.06H61.0841V31.57H64.2341V34H58.6541V20.5H64.2341ZM67.1817 34V22.93H65.2017V20.5H71.5917V22.93H69.6117V34H67.1817ZM78.6657 20.5V22.93H75.5157V25.63H78.1797V28.06H75.5157V31.57H78.6657V34H73.0857V20.5H78.6657ZM87.2294 30.238V30.958C87.2294 31.954 86.9294 32.758 86.3294 33.37C85.7294 33.982 84.9194 34.288 83.8994 34.288C82.8854 34.288 82.0754 33.982 81.4694 33.37C80.8694 32.758 80.5694 31.954 80.5694 30.958V23.542C80.5694 22.54 80.8694 21.736 81.4694 21.13C82.0754 20.518 82.8854 20.212 83.8994 20.212C84.9194 20.212 85.7294 20.518 86.3294 21.13C86.9294 21.736 87.2294 22.54 87.2294 23.542V24.262H84.7994V23.542C84.7994 23.272 84.7214 23.056 84.5654 22.894C84.4094 22.726 84.1874 22.642 83.8994 22.642C83.6114 22.642 83.3894 22.726 83.2334 22.894C83.0774 23.056 82.9994 23.272 82.9994 23.542V30.958C82.9994 31.228 83.0774 31.447 83.2334 31.615C83.3894 31.777 83.6114 31.858 83.8994 31.858C84.1874 31.858 84.4094 31.777 84.5654 31.615C84.7214 31.447 84.7994 31.228 84.7994 30.958V30.238H87.2294ZM89.9981 34V22.93H88.0181V20.5H94.4081V22.93H92.4281V34H89.9981ZM98.3321 34H95.9021V20.5H98.3321V34ZM104.097 34.288C103.083 34.288 102.273 33.982 101.667 33.37C101.067 32.758 100.767 31.954 100.767 30.958V23.542C100.767 22.54 101.067 21.736 101.667 21.13C102.273 20.518 103.083 20.212 104.097 20.212C105.117 20.212 105.927 20.518 106.527 21.13C107.127 21.736 107.427 22.54 107.427 23.542V30.958C107.427 31.954 107.127 32.758 106.527 33.37C105.927 33.982 105.117 34.288 104.097 34.288ZM104.097 31.858C104.385 31.858 104.607 31.777 104.763 31.615C104.919 31.447 104.997 31.228 104.997 30.958V23.542C104.997 23.272 104.919 23.056 104.763 22.894C104.607 22.726 104.385 22.642 104.097 22.642C103.809 22.642 103.587 22.726 103.431 22.894C103.275 23.056 103.197 23.272 103.197 23.542V30.958C103.197 31.228 103.275 31.447 103.431 31.615C103.587 31.777 103.809 31.858 104.097 31.858ZM109.859 34V20.5H111.659L114.737 29.248L114.089 29.266V20.5H116.339V34H114.539L111.461 25.252L112.109 25.234V34H109.859ZM16.332 55V43.75H17.502L20.0145 53.395H19.7595L22.272 43.75H23.442V55H22.3545V46.765L22.482 46.7875L20.3295 55H19.4445L17.292 46.7875L17.4195 46.765V55H16.332ZM27.2128 43.75V53.875H30.3253V55H26.0878V43.75H27.2128ZM34.6827 51.4825V50.3575H41.0577V51.4825H34.6827ZM37.3152 48.025H38.4402V53.8H37.3152V48.025ZM51.5945 52.09V52.465C51.5945 53.295 51.352 53.965 50.867 54.475C50.382 54.985 49.737 55.24 48.932 55.24C48.132 55.24 47.487 54.985 46.997 54.475C46.512 53.965 46.2695 53.295 46.2695 52.465V46.285C46.2695 45.45 46.512 44.78 46.997 44.275C47.487 43.765 48.132 43.51 48.932 43.51C49.737 43.51 50.382 43.765 50.867 44.275C51.352 44.78 51.5945 45.45 51.5945 46.285V46.66H50.4695V46.285C50.4695 45.79 50.3295 45.3925 50.0495 45.0925C49.7695 44.7875 49.397 44.635 48.932 44.635C48.467 44.635 48.0945 44.7875 47.8145 45.0925C47.5345 45.3925 47.3945 45.79 47.3945 46.285V52.465C47.3945 52.96 47.5345 53.36 47.8145 53.665C48.0945 53.965 48.467 54.115 48.932 54.115C49.397 54.115 49.7695 53.965 50.0495 53.665C50.3295 53.36 50.4695 52.96 50.4695 52.465V52.09H51.5945ZM55.1276 55L52.6826 43.75H53.8451L55.8326 53.125H55.6301L57.6026 43.75H58.7651L56.3276 55H55.1276ZM63.2325 51.4825V50.3575H69.6075V51.4825H63.2325ZM65.865 48.025H66.99V53.8H65.865V48.025ZM79.5218 43.75V44.875H76.1093V48.8125H79.1168V49.9375H76.1093V53.875H79.5218V55H74.9843V43.75H79.5218ZM83.3861 55.18C82.9411 55.18 82.5386 55.0825 82.1786 54.8875C81.8236 54.6875 81.5411 54.3925 81.3311 54.0025C81.1211 53.6125 81.0161 53.135 81.0161 52.57V49.2775C81.0161 48.7175 81.1211 48.245 81.3311 47.86C81.5411 47.47 81.8236 47.175 82.1786 46.975C82.5386 46.775 82.9411 46.675 83.3861 46.675C83.8161 46.675 84.1836 46.765 84.4886 46.945C84.7986 47.12 85.0436 47.3625 85.2236 47.6725L85.0436 47.92V43.75H86.1311V55H85.0436V53.9425L85.2236 54.1825C85.0436 54.4975 84.7986 54.7425 84.4886 54.9175C84.1836 55.0925 83.8161 55.18 83.3861 55.18ZM83.5886 54.0925C84.0486 54.0925 84.4061 53.955 84.6611 53.68C84.9161 53.4 85.0436 53.0325 85.0436 52.5775V49.2775C85.0436 48.8225 84.9136 48.4575 84.6536 48.1825C84.3986 47.9025 84.0411 47.7625 83.5811 47.7625C83.1211 47.7625 82.7586 47.9025 82.4936 48.1825C82.2336 48.4575 82.1036 48.8225 82.1036 49.2775V52.57C82.1036 53.025 82.2336 53.3925 82.4936 53.6725C82.7586 53.9525 83.1236 54.0925 83.5886 54.0925ZM90.447 57.745C89.687 57.745 89.0695 57.5 88.5945 57.01C88.1245 56.525 87.8895 55.885 87.8895 55.09V54.895H88.977V55.1275C88.977 55.5825 89.107 55.95 89.367 56.23C89.632 56.515 89.992 56.6575 90.447 56.6575C90.902 56.6575 91.2645 56.515 91.5345 56.23C91.8045 55.95 91.9395 55.5825 91.9395 55.1275V52.8925L92.127 53.1325C91.942 53.4475 91.6945 53.6925 91.3845 53.8675C91.0795 54.0425 90.7145 54.13 90.2895 54.13C89.8445 54.13 89.442 54.0325 89.082 53.8375C88.722 53.6375 88.437 53.3425 88.227 52.9525C88.017 52.5625 87.912 52.085 87.912 51.52V49.2775C87.912 48.7175 88.017 48.245 88.227 47.86C88.437 47.47 88.722 47.175 89.082 46.975C89.442 46.775 89.8445 46.675 90.2895 46.675C90.7145 46.675 91.0795 46.765 91.3845 46.945C91.6945 47.12 91.942 47.3625 92.127 47.6725L91.9395 47.92V46.8625H93.027V55.0975C93.027 55.6275 92.917 56.09 92.697 56.485C92.477 56.885 92.1745 57.195 91.7895 57.415C91.4045 57.635 90.957 57.745 90.447 57.745ZM90.4845 53.0425C90.9445 53.0425 91.302 52.905 91.557 52.63C91.812 52.35 91.9395 51.9825 91.9395 51.5275V49.2775C91.9395 48.8225 91.812 48.4575 91.557 48.1825C91.302 47.9025 90.9445 47.7625 90.4845 47.7625C90.0195 47.7625 89.6545 47.9025 89.3895 48.1825C89.1295 48.4575 88.9995 48.8225 88.9995 49.2775V51.52C88.9995 51.975 89.1295 52.3425 89.3895 52.6225C89.6545 52.9025 90.0195 53.0425 90.4845 53.0425ZM97.5039 55.18C96.9939 55.18 96.5464 55.07 96.1614 54.85C95.7764 54.63 95.4739 54.3225 95.2539 53.9275C95.0339 53.5275 94.9239 53.0625 94.9239 52.5325V49.315C94.9239 48.795 95.0339 48.3375 95.2539 47.9425C95.4739 47.5425 95.7764 47.2325 96.1614 47.0125C96.5464 46.7875 96.9939 46.675 97.5039 46.675C98.2689 46.675 98.8864 46.9175 99.3564 47.4025C99.8264 47.8875 100.061 48.525 100.061 49.315V51.0925H95.7939V50.0425H98.9739V49.2775C98.9739 48.8225 98.8414 48.4575 98.5764 48.1825C98.3164 47.9025 97.9589 47.7625 97.5039 47.7625C97.0489 47.7625 96.6864 47.9025 96.4164 48.1825C96.1464 48.4575 96.0114 48.8225 96.0114 49.2775V52.57C96.0114 53.025 96.1464 53.3925 96.4164 53.6725C96.6864 53.9525 97.0489 54.0925 97.5039 54.0925C97.9589 54.0925 98.3164 53.9525 98.5764 53.6725C98.8414 53.3925 98.9739 53.025 98.9739 52.57V52.3825H100.061V52.5325C100.061 53.3225 99.8264 53.9625 99.3564 54.4525C98.8864 54.9375 98.2689 55.18 97.5039 55.18ZM105.365 55V43.75H107.915C108.72 43.75 109.365 44.005 109.85 44.515C110.335 45.02 110.578 45.69 110.578 46.525V52.225C110.578 53.055 110.335 53.725 109.85 54.235C109.365 54.745 108.72 55 107.915 55H105.365ZM106.49 53.875H107.915C108.38 53.875 108.753 53.725 109.033 53.425C109.313 53.12 109.453 52.72 109.453 52.225V46.525C109.453 46.03 109.313 45.6325 109.033 45.3325C108.753 45.0275 108.38 44.875 107.915 44.875H106.49V53.875ZM115.082 55.18C114.572 55.18 114.125 55.07 113.74 54.85C113.355 54.63 113.052 54.3225 112.832 53.9275C112.612 53.5275 112.502 53.0625 112.502 52.5325V49.315C112.502 48.795 112.612 48.3375 112.832 47.9425C113.052 47.5425 113.355 47.2325 113.74 47.0125C114.125 46.7875 114.572 46.675 115.082 46.675C115.847 46.675 116.465 46.9175 116.935 47.4025C117.405 47.8875 117.64 48.525 117.64 49.315V51.0925H113.372V50.0425H116.552V49.2775C116.552 48.8225 116.42 48.4575 116.155 48.1825C115.895 47.9025 115.537 47.7625 115.082 47.7625C114.627 47.7625 114.265 47.9025 113.995 48.1825C113.725 48.4575 113.59 48.8225 113.59 49.2775V52.57C113.59 53.025 113.725 53.3925 113.995 53.6725C114.265 53.9525 114.627 54.0925 115.082 54.0925C115.537 54.0925 115.895 53.9525 116.155 53.6725C116.42 53.3925 116.552 53.025 116.552 52.57V52.3825H117.64V52.5325C117.64 53.3225 117.405 53.9625 116.935 54.4525C116.465 54.9375 115.847 55.18 115.082 55.18ZM120.898 55L118.573 46.8625H119.735L121.685 53.8375H121.423L123.358 46.8625H124.52L122.218 55H120.898ZM125.75 55V46.8625H126.837V55H125.75ZM125.75 45.955V44.2H126.837V45.955H125.75ZM131.312 55.18C130.802 55.18 130.355 55.07 129.97 54.85C129.585 54.63 129.282 54.3225 129.062 53.9275C128.842 53.5275 128.732 53.0625 128.732 52.5325V49.315C128.732 48.795 128.842 48.3375 129.062 47.9425C129.282 47.5425 129.585 47.2325 129.97 47.0125C130.355 46.7875 130.802 46.675 131.312 46.675C132.077 46.675 132.695 46.9175 133.165 47.4025C133.635 47.8875 133.87 48.525 133.87 49.315V49.465H132.782V49.2775C132.782 48.8225 132.65 48.4575 132.385 48.1825C132.125 47.9025 131.767 47.7625 131.312 47.7625C130.857 47.7625 130.495 47.9025 130.225 48.1825C129.955 48.4575 129.82 48.8225 129.82 49.2775V52.57C129.82 53.025 129.955 53.3925 130.225 53.6725C130.495 53.9525 130.857 54.0925 131.312 54.0925C131.767 54.0925 132.125 53.9525 132.385 53.6725C132.65 53.3925 132.782 53.025 132.782 52.57V52.3825H133.87V52.5325C133.87 53.3225 133.635 53.9625 133.165 54.4525C132.695 54.9375 132.077 55.18 131.312 55.18ZM137.831 55.18C137.321 55.18 136.874 55.07 136.489 54.85C136.104 54.63 135.801 54.3225 135.581 53.9275C135.361 53.5275 135.251 53.0625 135.251 52.5325V49.315C135.251 48.795 135.361 48.3375 135.581 47.9425C135.801 47.5425 136.104 47.2325 136.489 47.0125C136.874 46.7875 137.321 46.675 137.831 46.675C138.596 46.675 139.214 46.9175 139.684 47.4025C140.154 47.8875 140.389 48.525 140.389 49.315V51.0925H136.121V50.0425H139.301V49.2775C139.301 48.8225 139.169 48.4575 138.904 48.1825C138.644 47.9025 138.286 47.7625 137.831 47.7625C137.376 47.7625 137.014 47.9025 136.744 48.1825C136.474 48.4575 136.339 48.8225 136.339 49.2775V52.57C136.339 53.025 136.474 53.3925 136.744 53.6725C137.014 53.9525 137.376 54.0925 137.831 54.0925C138.286 54.0925 138.644 53.9525 138.904 53.6725C139.169 53.3925 139.301 53.025 139.301 52.57V52.3825H140.389V52.5325C140.389 53.3225 140.154 53.9625 139.684 54.4525C139.214 54.9375 138.596 55.18 137.831 55.18ZM144.404 55.18C143.629 55.18 143.007 54.9575 142.537 54.5125C142.072 54.0625 141.839 53.47 141.839 52.735V52.4725H142.927V52.78C142.927 53.175 143.059 53.4925 143.324 53.7325C143.594 53.9725 143.949 54.0925 144.389 54.0925C144.814 54.0925 145.152 53.9725 145.402 53.7325C145.652 53.4925 145.777 53.145 145.777 52.69C145.777 52.395 145.719 52.17 145.604 52.015C145.494 51.855 145.334 51.735 145.124 51.655C144.914 51.575 144.659 51.505 144.359 51.445C143.864 51.34 143.427 51.225 143.047 51.1C142.667 50.97 142.369 50.765 142.154 50.485C141.944 50.205 141.839 49.7875 141.839 49.2325C141.839 48.4025 142.067 47.77 142.522 47.335C142.982 46.895 143.584 46.675 144.329 46.675C145.104 46.675 145.719 46.9 146.174 47.35C146.634 47.795 146.864 48.3825 146.864 49.1125V49.3675H145.777V49.075C145.777 48.675 145.647 48.3575 145.387 48.1225C145.132 47.8825 144.784 47.7625 144.344 47.7625C143.914 47.7625 143.569 47.885 143.309 48.13C143.054 48.37 142.927 48.7175 142.927 49.1725C142.927 49.4675 142.982 49.695 143.092 49.855C143.207 50.01 143.372 50.125 143.587 50.2C143.802 50.275 144.059 50.345 144.359 50.41C144.849 50.51 145.282 50.625 145.657 50.755C146.032 50.885 146.327 51.0925 146.542 51.3775C146.757 51.6625 146.864 52.085 146.864 52.645C146.864 53.46 146.639 54.0875 146.189 54.5275C145.744 54.9625 145.149 55.18 144.404 55.18Z" fill="black"/>
</svg>
