<svg width="178" height="104" viewBox="0 0 178 104" fill="none" xmlns="http://www.w3.org/2000/svg">
<rect x="5.36133" y="6" width="172.639" height="98" fill="#716F6C"/>
<rect width="172.639" height="98" fill="#FEF8EB"/>
<path d="M16.326 34V20.5H18.756V27.25H20.196V20.5H22.626V34H20.196V29.68H18.756V34H16.326ZM24.2117 34L26.7677 20.5H29.3957L31.8977 34H29.4137L29.1077 31.894H27.0197L26.6957 34H24.2117ZM27.3797 29.464H28.7477L27.9197 23.776H28.2437L27.3797 29.464ZM39.8764 20.5V30.958C39.8764 31.954 39.5764 32.758 38.9764 33.37C38.3764 33.982 37.5664 34.288 36.5464 34.288C35.5324 34.288 34.7224 33.982 34.1164 33.37C33.5164 32.758 33.2164 31.954 33.2164 30.958V20.5H35.6464V30.958C35.6464 31.228 35.7244 31.447 35.8804 31.615C36.0364 31.777 36.2584 31.858 36.5464 31.858C36.8344 31.858 37.0564 31.777 37.2124 31.615C37.3684 31.447 37.4464 31.228 37.4464 30.958V20.5H39.8764ZM42.4119 34V20.5H44.2119L47.2899 29.248L46.6419 29.266V20.5H48.8919V34H47.0919L44.0139 25.252L44.6619 25.234V34H42.4119ZM52.3634 34V22.93H50.3834V20.5H56.7734V22.93H54.7934V34H52.3634ZM63.8474 20.5V22.93H60.6974V25.63H63.3614V28.06H60.6974V31.57H63.8474V34H58.2674V20.5H63.8474ZM65.949 34V20.5H69.279C70.299 20.5 71.109 20.806 71.709 21.418C72.309 22.024 72.609 22.828 72.609 23.83V30.67C72.609 31.666 72.309 32.47 71.709 33.082C71.109 33.694 70.299 34 69.279 34H65.949ZM68.379 31.57H69.279C69.567 31.57 69.789 31.489 69.945 31.327C70.101 31.159 70.179 30.94 70.179 30.67V23.83C70.179 23.56 70.101 23.344 69.945 23.182C69.789 23.014 69.567 22.93 69.279 22.93H68.379V31.57ZM79.2548 29.779V28.429H84.3848V29.779H79.2548ZM94.0891 34.288C93.1291 34.288 92.3551 33.982 91.7671 33.37C91.1851 32.758 90.8941 31.954 90.8941 30.958V23.542C90.8941 22.54 91.1851 21.736 91.7671 21.13C92.3551 20.518 93.1291 20.212 94.0891 20.212C95.0551 20.212 95.8291 20.518 96.4111 21.13C96.9931 21.736 97.2841 22.54 97.2841 23.542V23.992H95.9341V23.542C95.9341 22.948 95.7661 22.471 95.4301 22.111C95.0941 21.745 94.6471 21.562 94.0891 21.562C93.5311 21.562 93.0841 21.745 92.7481 22.111C92.4121 22.471 92.2441 22.948 92.2441 23.542V30.958C92.2441 31.552 92.4121 32.032 92.7481 32.398C93.0841 32.758 93.5311 32.938 94.0891 32.938C94.6471 32.938 95.0941 32.758 95.4301 32.398C95.7661 32.032 95.9341 31.552 95.9341 30.958V28.87H94.1251V27.52H97.2841V30.958C97.2841 31.954 96.9931 32.758 96.4111 33.37C95.8291 33.982 95.0551 34.288 94.0891 34.288ZM106.214 30.508V30.958C106.214 31.954 105.923 32.758 105.341 33.37C104.759 33.982 103.985 34.288 103.019 34.288C102.059 34.288 101.285 33.982 100.697 33.37C100.115 32.758 99.8237 31.954 99.8237 30.958V23.542C99.8237 22.54 100.115 21.736 100.697 21.13C101.285 20.518 102.059 20.212 103.019 20.212C103.985 20.212 104.759 20.518 105.341 21.13C105.923 21.736 106.214 22.54 106.214 23.542V23.992H104.864V23.542C104.864 22.948 104.696 22.471 104.36 22.111C104.024 21.745 103.577 21.562 103.019 21.562C102.461 21.562 102.014 21.745 101.678 22.111C101.342 22.471 101.174 22.948 101.174 23.542V30.958C101.174 31.552 101.342 32.032 101.678 32.398C102.014 32.758 102.461 32.938 103.019 32.938C103.577 32.938 104.024 32.758 104.36 32.398C104.696 32.032 104.864 31.552 104.864 30.958V30.508H106.214ZM111.29 34.288C110.33 34.288 109.556 33.982 108.968 33.37C108.386 32.758 108.095 31.954 108.095 30.958V30.508H109.445V30.958C109.445 31.552 109.613 32.032 109.949 32.398C110.285 32.758 110.732 32.938 111.29 32.938C111.848 32.938 112.295 32.758 112.631 32.398C112.967 32.032 113.135 31.552 113.135 30.958V29.95C113.135 29.62 113.123 29.359 113.099 29.167C113.075 28.969 113.009 28.81 112.901 28.69C112.793 28.57 112.613 28.459 112.361 28.357C112.109 28.249 111.752 28.12 111.29 27.97C110.492 27.706 109.874 27.487 109.436 27.313C108.998 27.139 108.683 26.953 108.491 26.755C108.305 26.557 108.191 26.296 108.149 25.972C108.113 25.642 108.095 25.198 108.095 24.64V23.542C108.095 22.54 108.386 21.736 108.968 21.13C109.556 20.518 110.33 20.212 111.29 20.212C112.256 20.212 113.03 20.518 113.612 21.13C114.194 21.736 114.485 22.54 114.485 23.542V23.992H113.135V23.542C113.135 22.948 112.967 22.471 112.631 22.111C112.295 21.745 111.848 21.562 111.29 21.562C110.732 21.562 110.285 21.745 109.949 22.111C109.613 22.471 109.445 22.948 109.445 23.542V24.64C109.445 24.97 109.454 25.234 109.472 25.432C109.496 25.624 109.562 25.78 109.67 25.9C109.778 26.014 109.958 26.125 110.21 26.233C110.468 26.341 110.828 26.47 111.29 26.62C112.088 26.878 112.706 27.097 113.144 27.277C113.582 27.451 113.894 27.637 114.08 27.835C114.272 28.033 114.386 28.294 114.422 28.618C114.464 28.942 114.485 29.386 114.485 29.95V30.958C114.485 31.954 114.194 32.758 113.612 33.37C113.03 33.982 112.256 34.288 111.29 34.288ZM17.862 55L15.417 43.75H16.5795L18.567 53.125H18.3645L20.337 43.75H21.4995L19.062 55H17.862ZM23.2314 55V43.75H26.0064C26.7464 43.75 27.3364 43.9825 27.7764 44.4475C28.2214 44.9125 28.4439 45.53 28.4439 46.3V47.815C28.4439 48.335 28.3364 48.7925 28.1214 49.1875C27.9114 49.5825 27.6114 49.8825 27.2214 50.0875L27.1689 49.7575C27.5689 49.9125 27.8814 50.1575 28.1064 50.4925C28.3314 50.8275 28.4439 51.2225 28.4439 51.6775V55H27.3189V51.6775C27.3189 51.2875 27.1989 50.9725 26.9589 50.7325C26.7239 50.4875 26.4064 50.365 26.0064 50.365H24.3564V55H23.2314ZM24.3564 49.24H26.0064C26.4064 49.24 26.7239 49.11 26.9589 48.85C27.1989 48.59 27.3189 48.245 27.3189 47.815V46.3C27.3189 45.87 27.1989 45.525 26.9589 45.265C26.7239 45.005 26.4064 44.875 26.0064 44.875H24.3564V49.24ZM34.1152 55V43.75H35.2402V49.4875H38.1277V43.75H39.2527V55H38.1277V50.6125H35.2402V55H34.1152ZM43.9785 55.18C43.4685 55.18 43.021 55.07 42.636 54.85C42.251 54.63 41.9485 54.3225 41.7285 53.9275C41.5085 53.5275 41.3985 53.0625 41.3985 52.5325V49.315C41.3985 48.795 41.5085 48.3375 41.7285 47.9425C41.9485 47.5425 42.251 47.2325 42.636 47.0125C43.021 46.7875 43.4685 46.675 43.9785 46.675C44.7435 46.675 45.361 46.9175 45.831 47.4025C46.301 47.8875 46.536 48.525 46.536 49.315V52.5325C46.536 53.3225 46.301 53.9625 45.831 54.4525C45.361 54.9375 44.7435 55.18 43.9785 55.18ZM43.9785 54.0925C44.4335 54.0925 44.791 53.9525 45.051 53.6725C45.316 53.3925 45.4485 53.025 45.4485 52.57V49.2775C45.4485 48.8225 45.316 48.4575 45.051 48.1825C44.791 47.9025 44.4335 47.7625 43.9785 47.7625C43.5235 47.7625 43.161 47.9025 42.891 48.1825C42.621 48.4575 42.486 48.8225 42.486 49.2775V52.57C42.486 53.025 42.621 53.3925 42.891 53.6725C43.161 53.9525 43.5235 54.0925 43.9785 54.0925ZM48.4354 55V46.8625H49.5229V48.0325L49.3354 47.8075C49.5254 47.4725 49.7779 47.215 50.0929 47.035C50.4079 46.855 50.7729 46.765 51.1879 46.765H51.5404V47.8525H50.9629C50.5279 47.8525 50.1779 47.9875 49.9129 48.2575C49.6529 48.5275 49.5229 48.89 49.5229 49.345V55H48.4354ZM52.6688 55V46.8625H53.7563V48.0325L53.5688 47.8075C53.7588 47.4725 54.0113 47.215 54.3263 47.035C54.6413 46.855 55.0063 46.765 55.4213 46.765H55.7738V47.8525H55.1963C54.7613 47.8525 54.4113 47.9875 54.1463 48.2575C53.8863 48.5275 53.7563 48.89 53.7563 49.345V55H52.6688ZM59.2422 55.18C58.7322 55.18 58.2847 55.07 57.8997 54.85C57.5147 54.63 57.2122 54.3225 56.9922 53.9275C56.7722 53.5275 56.6622 53.0625 56.6622 52.5325V49.315C56.6622 48.795 56.7722 48.3375 56.9922 47.9425C57.2122 47.5425 57.5147 47.2325 57.8997 47.0125C58.2847 46.7875 58.7322 46.675 59.2422 46.675C60.0072 46.675 60.6247 46.9175 61.0947 47.4025C61.5647 47.8875 61.7997 48.525 61.7997 49.315V52.5325C61.7997 53.3225 61.5647 53.9625 61.0947 54.4525C60.6247 54.9375 60.0072 55.18 59.2422 55.18ZM59.2422 54.0925C59.6972 54.0925 60.0547 53.9525 60.3147 53.6725C60.5797 53.3925 60.7122 53.025 60.7122 52.57V49.2775C60.7122 48.8225 60.5797 48.4575 60.3147 48.1825C60.0547 47.9025 59.6972 47.7625 59.2422 47.7625C58.7872 47.7625 58.4247 47.9025 58.1547 48.1825C57.8847 48.4575 57.7497 48.8225 57.7497 49.2775V52.57C57.7497 53.025 57.8847 53.3925 58.1547 53.6725C58.4247 53.9525 58.7872 54.0925 59.2422 54.0925ZM63.699 55V46.8625H64.7865V48.0325L64.599 47.8075C64.789 47.4725 65.0415 47.215 65.3565 47.035C65.6715 46.855 66.0365 46.765 66.4515 46.765H66.804V47.8525H66.2265C65.7915 47.8525 65.4415 47.9875 65.1765 48.2575C64.9165 48.5275 64.7865 48.89 64.7865 49.345V55H63.699ZM73.8929 55.24C73.0929 55.24 72.4479 54.985 71.9579 54.475C71.4729 53.965 71.2304 53.295 71.2304 52.465V46.285C71.2304 45.45 71.4729 44.78 71.9579 44.275C72.4479 43.765 73.0929 43.51 73.8929 43.51C74.6979 43.51 75.3429 43.765 75.8279 44.275C76.3129 44.78 76.5554 45.45 76.5554 46.285V46.66H75.4304V46.285C75.4304 45.79 75.2904 45.3925 75.0104 45.0925C74.7304 44.7875 74.3579 44.635 73.8929 44.635C73.4279 44.635 73.0554 44.7875 72.7754 45.0925C72.4954 45.3925 72.3554 45.79 72.3554 46.285V52.465C72.3554 52.96 72.4954 53.36 72.7754 53.665C73.0554 53.965 73.4279 54.115 73.8929 54.115C74.3579 54.115 74.7304 53.965 75.0104 53.665C75.2904 53.36 75.4304 52.96 75.4304 52.465V50.725H73.9229V49.6H76.5554V52.465C76.5554 53.295 76.3129 53.965 75.8279 54.475C75.3429 54.985 74.6979 55.24 73.8929 55.24ZM80.4418 55.18C79.6918 55.18 79.1118 54.9725 78.7018 54.5575C78.2918 54.1425 78.0868 53.6175 78.0868 52.9825C78.0868 52.5875 78.1593 52.26 78.3043 52C78.4493 51.735 78.6343 51.52 78.8593 51.355C79.0893 51.19 79.3318 51.0575 79.5868 50.9575C79.8918 50.8325 80.2018 50.735 80.5168 50.665C80.8368 50.59 81.1318 50.5125 81.4018 50.4325C81.6718 50.3475 81.8893 50.2325 82.0543 50.0875C82.2193 49.9425 82.3018 49.7375 82.3018 49.4725V49.2775C82.3018 48.8225 82.1643 48.4575 81.8893 48.1825C81.6193 47.9025 81.2593 47.7625 80.8093 47.7625C80.3543 47.7625 79.9943 47.9025 79.7293 48.1825C79.4693 48.4575 79.3393 48.8225 79.3393 49.2775V49.5025H78.2518V49.315C78.2518 48.525 78.4868 47.8875 78.9568 47.4025C79.4268 46.9175 80.0443 46.675 80.8093 46.675C81.3143 46.675 81.7593 46.7875 82.1443 47.0125C82.5343 47.2325 82.8393 47.54 83.0593 47.935C83.2793 48.33 83.3893 48.79 83.3893 49.315V55H82.3018V53.875L82.4818 54.115C82.2918 54.455 82.0243 54.7175 81.6793 54.9025C81.3343 55.0875 80.9218 55.18 80.4418 55.18ZM80.6668 54.145C81.1768 54.145 81.5768 54.0025 81.8668 53.7175C82.1568 53.4275 82.3018 53.015 82.3018 52.48V51.04C81.9968 51.23 81.6568 51.36 81.2818 51.43C80.9068 51.495 80.5493 51.585 80.2093 51.7C79.9093 51.8 79.6618 51.9425 79.4668 52.1275C79.2718 52.3075 79.1743 52.565 79.1743 52.9C79.1743 53.265 79.3043 53.565 79.5643 53.8C79.8243 54.03 80.1918 54.145 80.6668 54.145ZM85.3934 55V46.8625H86.4809V47.9425L86.3009 47.71C86.4859 47.38 86.7334 47.125 87.0434 46.945C87.3584 46.765 87.7259 46.675 88.1459 46.675C88.6559 46.675 89.1009 46.805 89.4809 47.065C89.8609 47.325 90.1284 47.7075 90.2834 48.2125L90.0209 48.1825C90.1759 47.7175 90.4284 47.35 90.7784 47.08C91.1334 46.81 91.5684 46.675 92.0834 46.675C92.5234 46.675 92.9134 46.7725 93.2534 46.9675C93.5934 47.1625 93.8609 47.4475 94.0559 47.8225C94.2559 48.1925 94.3559 48.64 94.3559 49.165V55H93.2684V49.2775C93.2684 48.8225 93.1384 48.4575 92.8784 48.1825C92.6234 47.9025 92.2834 47.7625 91.8584 47.7625C91.4234 47.7625 91.0734 47.9025 90.8084 48.1825C90.5484 48.4575 90.4184 48.8225 90.4184 49.2775V55H89.3309V49.2775C89.3309 48.8225 89.2009 48.4575 88.9409 48.1825C88.6859 47.9025 88.3459 47.7625 87.9209 47.7625C87.4859 47.7625 87.1359 47.9025 86.8709 48.1825C86.6109 48.4575 86.4809 48.8225 86.4809 49.2775V55H85.3934ZM98.7343 55.18C98.2243 55.18 97.7768 55.07 97.3918 54.85C97.0068 54.63 96.7043 54.3225 96.4843 53.9275C96.2643 53.5275 96.1543 53.0625 96.1543 52.5325V49.315C96.1543 48.795 96.2643 48.3375 96.4843 47.9425C96.7043 47.5425 97.0068 47.2325 97.3918 47.0125C97.7768 46.7875 98.2243 46.675 98.7343 46.675C99.4993 46.675 100.117 46.9175 100.587 47.4025C101.057 47.8875 101.292 48.525 101.292 49.315V51.0925H97.0243V50.0425H100.204V49.2775C100.204 48.8225 100.072 48.4575 99.8068 48.1825C99.5468 47.9025 99.1893 47.7625 98.7343 47.7625C98.2793 47.7625 97.9168 47.9025 97.6468 48.1825C97.3768 48.4575 97.2418 48.8225 97.2418 49.2775V52.57C97.2418 53.025 97.3768 53.3925 97.6468 53.6725C97.9168 53.9525 98.2793 54.0925 98.7343 54.0925C99.1893 54.0925 99.5468 53.9525 99.8068 53.6725C100.072 53.3925 100.204 53.025 100.204 52.57V52.3825H101.292V52.5325C101.292 53.3225 101.057 53.9625 100.587 54.4525C100.117 54.9375 99.4993 55.18 98.7343 55.18Z" fill="black"/>
</svg>
