<svg width="178" height="104" viewBox="0 0 178 104" fill="none" xmlns="http://www.w3.org/2000/svg">
<rect x="5.36133" y="6" width="172.639" height="98" fill="#716F6C"/>
<rect width="172.639" height="98" fill="#FEF8EB"/>
<path d="M18.756 20.5V31.57H21.546V34H16.326V20.5H18.756ZM25.5587 34H23.1287V20.5H25.5587V34ZM29.7032 34L27.1472 20.5H29.6312L31.1792 30.562H30.8552L32.3492 20.5H34.8332L32.3312 34H29.7032ZM41.9978 20.5V22.93H38.8478V25.63H41.5118V28.06H38.8478V31.57H41.9978V34H36.4178V20.5H41.9978ZM48.4236 34V20.5H51.7536C52.7736 20.5 53.5836 20.806 54.1836 21.418C54.7836 22.024 55.0836 22.828 55.0836 23.83V25.27C55.0836 25.792 54.9966 26.269 54.8226 26.701C54.6546 27.127 54.4116 27.484 54.0936 27.772L54.0396 26.818C54.4176 27.094 54.7146 27.463 54.9306 27.925C55.1526 28.387 55.2636 28.912 55.2636 29.5V30.67C55.2636 31.666 54.9636 32.47 54.3636 33.082C53.7636 33.694 52.9536 34 51.9336 34H48.4236ZM50.8536 31.57H51.9336C52.2216 31.57 52.4436 31.489 52.5996 31.327C52.7556 31.159 52.8336 30.94 52.8336 30.67V29.5C52.8336 29.23 52.7556 29.014 52.5996 28.852C52.4436 28.684 52.2216 28.6 51.9336 28.6H50.8536V31.57ZM50.8536 26.17H51.7536C52.0416 26.17 52.2636 26.089 52.4196 25.927C52.5756 25.759 52.6536 25.54 52.6536 25.27V23.83C52.6536 23.56 52.5756 23.344 52.4196 23.182C52.2636 23.014 52.0416 22.93 51.7536 22.93H50.8536V26.17ZM58.6732 34V27.88L55.8472 20.5H58.3312L60.2392 26.206H59.5552L61.4092 20.5H63.8932L61.1032 27.88V34H58.6732ZM69.5877 34V20.5H72.9177C73.9377 20.5 74.7477 20.806 75.3477 21.418C75.9477 22.024 76.2477 22.828 76.2477 23.83V30.67C76.2477 31.666 75.9477 32.47 75.3477 33.082C74.7477 33.694 73.9377 34 72.9177 34H69.5877ZM72.0177 31.57H72.9177C73.2057 31.57 73.4277 31.489 73.5837 31.327C73.7397 31.159 73.8177 30.94 73.8177 30.67V23.83C73.8177 23.56 73.7397 23.344 73.5837 23.182C73.4277 23.014 73.2057 22.93 72.9177 22.93H72.0177V31.57ZM77.2097 34L79.7657 20.5H82.3937L84.8957 34H82.4117L82.1057 31.894H80.0177L79.6937 34H77.2097ZM80.3777 29.464H81.7457L80.9177 23.776H81.2417L80.3777 29.464ZM87.5013 34V27.88L84.6753 20.5H87.1593L89.0673 26.206H88.3833L90.2373 20.5H92.7213L89.9313 27.88V34H87.5013ZM96.5216 20.5V31.57H99.3116V34H94.0916V20.5H96.5216ZM103.324 34H100.894V20.5H103.324V34ZM109.089 34.288C108.075 34.288 107.265 33.982 106.659 33.37C106.059 32.758 105.759 31.954 105.759 30.958V23.542C105.759 22.54 106.059 21.736 106.659 21.13C107.265 20.518 108.075 20.212 109.089 20.212C110.109 20.212 110.919 20.518 111.519 21.13C112.119 21.736 112.419 22.54 112.419 23.542V24.262H109.989V23.542C109.989 23.272 109.911 23.056 109.755 22.894C109.599 22.726 109.377 22.642 109.089 22.642C108.801 22.642 108.579 22.726 108.423 22.894C108.267 23.056 108.189 23.272 108.189 23.542V30.958C108.189 31.228 108.267 31.447 108.423 31.615C108.579 31.777 108.801 31.858 109.089 31.858C109.377 31.858 109.599 31.777 109.755 31.615C109.911 31.447 109.989 31.228 109.989 30.958V29.68H108.855V27.25H112.419V30.958C112.419 31.954 112.119 32.758 111.519 33.37C110.919 33.982 110.109 34.288 109.089 34.288ZM114.676 34V20.5H117.106V27.25H118.546V20.5H120.976V34H118.546V29.68H117.106V34H114.676ZM124.451 34V22.93H122.471V20.5H128.861V22.93H126.881V34H124.451ZM17.457 43.75V53.875H20.5695V55H16.332V43.75H17.457ZM21.9363 55V46.8625H23.0238V55H21.9363ZM21.9363 45.955V44.2H23.0238V45.955H21.9363ZM29.269 55L27.0265 50.635L26.104 51.82V50.1625L28.7965 46.8475H29.959L27.739 49.6975L30.4315 55H29.269ZM25.159 55V43.75H26.2465V55H25.159ZM33.9004 55.18C33.3904 55.18 32.9429 55.07 32.5579 54.85C32.1729 54.63 31.8704 54.3225 31.6504 53.9275C31.4304 53.5275 31.3204 53.0625 31.3204 52.5325V49.315C31.3204 48.795 31.4304 48.3375 31.6504 47.9425C31.8704 47.5425 32.1729 47.2325 32.5579 47.0125C32.9429 46.7875 33.3904 46.675 33.9004 46.675C34.6654 46.675 35.2829 46.9175 35.7529 47.4025C36.2229 47.8875 36.4579 48.525 36.4579 49.315V51.0925H32.1904V50.0425H35.3704V49.2775C35.3704 48.8225 35.2379 48.4575 34.9729 48.1825C34.7129 47.9025 34.3554 47.7625 33.9004 47.7625C33.4454 47.7625 33.0829 47.9025 32.8129 48.1825C32.5429 48.4575 32.4079 48.8225 32.4079 49.2775V52.57C32.4079 53.025 32.5429 53.3925 32.8129 53.6725C33.0829 53.9525 33.4454 54.0925 33.9004 54.0925C34.3554 54.0925 34.7129 53.9525 34.9729 53.6725C35.2379 53.3925 35.3704 53.025 35.3704 52.57V52.3825H36.4579V52.5325C36.4579 53.3225 36.2229 53.9625 35.7529 54.4525C35.2829 54.9375 34.6654 55.18 33.9004 55.18ZM41.7617 55V43.75H44.3117C45.1167 43.75 45.7617 44.005 46.2467 44.515C46.7317 45.02 46.9742 45.69 46.9742 46.525V52.225C46.9742 53.055 46.7317 53.725 46.2467 54.235C45.7617 54.745 45.1167 55 44.3117 55H41.7617ZM42.8867 53.875H44.3117C44.7767 53.875 45.1492 53.725 45.4292 53.425C45.7092 53.12 45.8492 52.72 45.8492 52.225V46.525C45.8492 46.03 45.7092 45.6325 45.4292 45.3325C45.1492 45.0275 44.7767 44.875 44.3117 44.875H42.8867V53.875ZM51.4785 55.18C50.9685 55.18 50.521 55.07 50.136 54.85C49.751 54.63 49.4485 54.3225 49.2285 53.9275C49.0085 53.5275 48.8985 53.0625 48.8985 52.5325V49.315C48.8985 48.795 49.0085 48.3375 49.2285 47.9425C49.4485 47.5425 49.751 47.2325 50.136 47.0125C50.521 46.7875 50.9685 46.675 51.4785 46.675C52.2435 46.675 52.861 46.9175 53.331 47.4025C53.801 47.8875 54.036 48.525 54.036 49.315V51.0925H49.7685V50.0425H52.9485V49.2775C52.9485 48.8225 52.816 48.4575 52.551 48.1825C52.291 47.9025 51.9335 47.7625 51.4785 47.7625C51.0235 47.7625 50.661 47.9025 50.391 48.1825C50.121 48.4575 49.986 48.8225 49.986 49.2775V52.57C49.986 53.025 50.121 53.3925 50.391 53.6725C50.661 53.9525 51.0235 54.0925 51.4785 54.0925C51.9335 54.0925 52.291 53.9525 52.551 53.6725C52.816 53.3925 52.9485 53.025 52.9485 52.57V52.3825H54.036V52.5325C54.036 53.3225 53.801 53.9625 53.331 54.4525C52.861 54.9375 52.2435 55.18 51.4785 55.18ZM57.7368 55.18C56.9868 55.18 56.4068 54.9725 55.9968 54.5575C55.5868 54.1425 55.3818 53.6175 55.3818 52.9825C55.3818 52.5875 55.4543 52.26 55.5993 52C55.7443 51.735 55.9293 51.52 56.1543 51.355C56.3843 51.19 56.6268 51.0575 56.8818 50.9575C57.1868 50.8325 57.4968 50.735 57.8118 50.665C58.1318 50.59 58.4268 50.5125 58.6968 50.4325C58.9668 50.3475 59.1843 50.2325 59.3493 50.0875C59.5143 49.9425 59.5968 49.7375 59.5968 49.4725V49.2775C59.5968 48.8225 59.4593 48.4575 59.1843 48.1825C58.9143 47.9025 58.5543 47.7625 58.1043 47.7625C57.6493 47.7625 57.2893 47.9025 57.0243 48.1825C56.7643 48.4575 56.6343 48.8225 56.6343 49.2775V49.5025H55.5468V49.315C55.5468 48.525 55.7818 47.8875 56.2518 47.4025C56.7218 46.9175 57.3393 46.675 58.1043 46.675C58.6093 46.675 59.0543 46.7875 59.4393 47.0125C59.8293 47.2325 60.1343 47.54 60.3543 47.935C60.5743 48.33 60.6843 48.79 60.6843 49.315V55H59.5968V53.875L59.7768 54.115C59.5868 54.455 59.3193 54.7175 58.9743 54.9025C58.6293 55.0875 58.2168 55.18 57.7368 55.18ZM57.9618 54.145C58.4718 54.145 58.8718 54.0025 59.1618 53.7175C59.4518 53.4275 59.5968 53.015 59.5968 52.48V51.04C59.2918 51.23 58.9518 51.36 58.5768 51.43C58.2018 51.495 57.8443 51.585 57.5043 51.7C57.2043 51.8 56.9568 51.9425 56.7618 52.1275C56.5668 52.3075 56.4693 52.565 56.4693 52.9C56.4693 53.265 56.5993 53.565 56.8593 53.8C57.1193 54.03 57.4868 54.145 57.9618 54.145ZM64.8558 55.18C64.4108 55.18 64.0083 55.0825 63.6483 54.8875C63.2933 54.6875 63.0108 54.3925 62.8008 54.0025C62.5908 53.6125 62.4858 53.135 62.4858 52.57V49.2775C62.4858 48.7175 62.5908 48.245 62.8008 47.86C63.0108 47.47 63.2933 47.175 63.6483 46.975C64.0083 46.775 64.4108 46.675 64.8558 46.675C65.2858 46.675 65.6533 46.765 65.9583 46.945C66.2683 47.12 66.5133 47.3625 66.6933 47.6725L66.5133 47.92V43.75H67.6008V55H66.5133V53.9425L66.6933 54.1825C66.5133 54.4975 66.2683 54.7425 65.9583 54.9175C65.6533 55.0925 65.2858 55.18 64.8558 55.18ZM65.0583 54.0925C65.5183 54.0925 65.8758 53.955 66.1308 53.68C66.3858 53.4 66.5133 53.0325 66.5133 52.5775V49.2775C66.5133 48.8225 66.3833 48.4575 66.1233 48.1825C65.8683 47.9025 65.5108 47.7625 65.0508 47.7625C64.5908 47.7625 64.2283 47.9025 63.9633 48.1825C63.7033 48.4575 63.5733 48.8225 63.5733 49.2775V52.57C63.5733 53.025 63.7033 53.3925 63.9633 53.6725C64.2283 53.9525 64.5933 54.0925 65.0583 54.0925ZM73.1972 55V43.75H75.9722C76.7122 43.75 77.3022 43.9825 77.7422 44.4475C78.1872 44.9125 78.4097 45.53 78.4097 46.3V47.215C78.4097 47.685 78.3222 48.105 78.1472 48.475C77.9722 48.84 77.7297 49.13 77.4197 49.345L77.3972 48.955C77.7522 49.16 78.0347 49.4575 78.2447 49.8475C78.4547 50.2325 78.5597 50.68 78.5597 51.19V52.45C78.5597 53.21 78.3372 53.825 77.8922 54.295C77.4522 54.765 76.8622 55 76.1222 55H73.1972ZM74.3222 53.875H76.1222C76.5222 53.875 76.8397 53.745 77.0747 53.485C77.3147 53.22 77.4347 52.875 77.4347 52.45V51.19C77.4347 50.765 77.3147 50.4225 77.0747 50.1625C76.8397 49.8975 76.5222 49.765 76.1222 49.765H74.3222V53.875ZM74.3222 48.64H75.9722C76.3722 48.64 76.6897 48.51 76.9247 48.25C77.1647 47.99 77.2847 47.645 77.2847 47.215V46.3C77.2847 45.87 77.1647 45.525 76.9247 45.265C76.6897 45.005 76.3722 44.875 75.9722 44.875H74.3222V48.64ZM81.1918 57.7L81.9268 55.165L79.5568 46.8625H80.7418L82.6693 53.7325H82.4068L84.3043 46.8625H85.5043L82.3618 57.7H81.1918ZM90.1894 55V43.75H92.7394C93.5444 43.75 94.1894 44.005 94.6744 44.515C95.1594 45.02 95.4019 45.69 95.4019 46.525V52.225C95.4019 53.055 95.1594 53.725 94.6744 54.235C94.1894 54.745 93.5444 55 92.7394 55H90.1894ZM91.3144 53.875H92.7394C93.2044 53.875 93.5769 53.725 93.8569 53.425C94.1369 53.12 94.2769 52.72 94.2769 52.225V46.525C94.2769 46.03 94.1369 45.6325 93.8569 45.3325C93.5769 45.0275 93.2044 44.875 92.7394 44.875H91.3144V53.875ZM99.4262 55.18C98.6762 55.18 98.0962 54.9725 97.6862 54.5575C97.2762 54.1425 97.0712 53.6175 97.0712 52.9825C97.0712 52.5875 97.1437 52.26 97.2887 52C97.4337 51.735 97.6187 51.52 97.8437 51.355C98.0737 51.19 98.3162 51.0575 98.5712 50.9575C98.8762 50.8325 99.1862 50.735 99.5012 50.665C99.8212 50.59 100.116 50.5125 100.386 50.4325C100.656 50.3475 100.874 50.2325 101.039 50.0875C101.204 49.9425 101.286 49.7375 101.286 49.4725V49.2775C101.286 48.8225 101.149 48.4575 100.874 48.1825C100.604 47.9025 100.244 47.7625 99.7937 47.7625C99.3387 47.7625 98.9787 47.9025 98.7137 48.1825C98.4537 48.4575 98.3237 48.8225 98.3237 49.2775V49.5025H97.2362V49.315C97.2362 48.525 97.4712 47.8875 97.9412 47.4025C98.4112 46.9175 99.0287 46.675 99.7937 46.675C100.299 46.675 100.744 46.7875 101.129 47.0125C101.519 47.2325 101.824 47.54 102.044 47.935C102.264 48.33 102.374 48.79 102.374 49.315V55H101.286V53.875L101.466 54.115C101.276 54.455 101.009 54.7175 100.664 54.9025C100.319 55.0875 99.9062 55.18 99.4262 55.18ZM99.6512 54.145C100.161 54.145 100.561 54.0025 100.851 53.7175C101.141 53.4275 101.286 53.015 101.286 52.48V51.04C100.981 51.23 100.641 51.36 100.266 51.43C99.8912 51.495 99.5337 51.585 99.1937 51.7C98.8937 51.8 98.6462 51.9425 98.4512 52.1275C98.2562 52.3075 98.1587 52.565 98.1587 52.9C98.1587 53.265 98.2887 53.565 98.5487 53.8C98.8087 54.03 99.1762 54.145 99.6512 54.145ZM105.01 57.7L105.745 55.165L103.375 46.8625H104.56L106.488 53.7325H106.225L108.123 46.8625H109.323L106.18 57.7H105.01ZM110.545 55V43.75H111.632V55H110.545ZM113.767 55V46.8625H114.855V55H113.767ZM113.767 45.955V44.2H114.855V45.955H113.767ZM119.173 57.745C118.413 57.745 117.795 57.5 117.32 57.01C116.85 56.525 116.615 55.885 116.615 55.09V54.895H117.703V55.1275C117.703 55.5825 117.833 55.95 118.093 56.23C118.358 56.515 118.718 56.6575 119.173 56.6575C119.628 56.6575 119.99 56.515 120.26 56.23C120.53 55.95 120.665 55.5825 120.665 55.1275V52.8925L120.853 53.1325C120.668 53.4475 120.42 53.6925 120.11 53.8675C119.805 54.0425 119.44 54.13 119.015 54.13C118.57 54.13 118.168 54.0325 117.808 53.8375C117.448 53.6375 117.163 53.3425 116.953 52.9525C116.743 52.5625 116.638 52.085 116.638 51.52V49.2775C116.638 48.7175 116.743 48.245 116.953 47.86C117.163 47.47 117.448 47.175 117.808 46.975C118.168 46.775 118.57 46.675 119.015 46.675C119.44 46.675 119.805 46.765 120.11 46.945C120.42 47.12 120.668 47.3625 120.853 47.6725L120.665 47.92V46.8625H121.753V55.0975C121.753 55.6275 121.643 56.09 121.423 56.485C121.203 56.885 120.9 57.195 120.515 57.415C120.13 57.635 119.683 57.745 119.173 57.745ZM119.21 53.0425C119.67 53.0425 120.028 52.905 120.283 52.63C120.538 52.35 120.665 51.9825 120.665 51.5275V49.2775C120.665 48.8225 120.538 48.4575 120.283 48.1825C120.028 47.9025 119.67 47.7625 119.21 47.7625C118.745 47.7625 118.38 47.9025 118.115 48.1825C117.855 48.4575 117.725 48.8225 117.725 49.2775V51.52C117.725 51.975 117.855 52.3425 118.115 52.6225C118.38 52.9025 118.745 53.0425 119.21 53.0425ZM123.889 55V43.75H124.977V47.9275L124.797 47.695C124.982 47.37 125.229 47.1175 125.539 46.9375C125.854 46.7575 126.224 46.6675 126.649 46.6675C127.079 46.6675 127.464 46.765 127.804 46.96C128.149 47.15 128.419 47.43 128.614 47.8C128.814 48.17 128.914 48.6225 128.914 49.1575V55H127.827V49.27C127.827 48.81 127.697 48.4425 127.437 48.1675C127.182 47.8925 126.842 47.755 126.417 47.755C125.982 47.755 125.632 47.8925 125.367 48.1675C125.107 48.4425 124.977 48.81 124.977 49.27V55H123.889ZM134.003 55.09C133.228 55.09 132.605 54.845 132.135 54.355C131.67 53.86 131.438 53.1975 131.438 52.3675V47.875H129.975V46.8475H131.438V44.8H132.525V46.8475H134.55V47.875H132.525V52.3675C132.525 52.8625 132.66 53.26 132.93 53.56C133.2 53.855 133.558 54.0025 134.003 54.0025H134.55V55.09H134.003Z" fill="black"/>
</svg>
