<svg width="178" height="104" viewBox="0 0 178 104" fill="none" xmlns="http://www.w3.org/2000/svg">
<rect x="5.36133" y="6" width="172.639" height="98" fill="#716F6C"/>
<rect width="172.639" height="98" fill="#FEF8EB"/>
<path d="M19.224 34.288C18.21 34.288 17.4 33.982 16.794 33.37C16.194 32.758 15.894 31.954 15.894 30.958V30.238H18.324V30.958C18.324 31.228 18.402 31.447 18.558 31.615C18.714 31.777 18.936 31.858 19.224 31.858C19.512 31.858 19.734 31.777 19.89 31.615C20.046 31.447 20.124 31.228 20.124 30.958V29.572C20.124 29.416 20.118 29.293 20.106 29.203C20.094 29.113 20.061 29.041 20.007 28.987C19.959 28.933 19.872 28.885 19.746 28.843C19.626 28.795 19.452 28.738 19.224 28.672C18.39 28.42 17.745 28.207 17.289 28.033C16.833 27.853 16.506 27.661 16.308 27.457C16.11 27.253 15.99 26.989 15.948 26.665C15.912 26.335 15.894 25.894 15.894 25.342V23.542C15.894 22.54 16.194 21.736 16.794 21.13C17.4 20.518 18.21 20.212 19.224 20.212C20.244 20.212 21.054 20.518 21.654 21.13C22.254 21.736 22.554 22.54 22.554 23.542V24.262H20.124V23.542C20.124 23.272 20.046 23.056 19.89 22.894C19.734 22.726 19.512 22.642 19.224 22.642C18.936 22.642 18.714 22.726 18.558 22.894C18.402 23.056 18.324 23.272 18.324 23.542V25.342C18.324 25.498 18.33 25.621 18.342 25.711C18.354 25.801 18.384 25.873 18.432 25.927C18.486 25.981 18.576 26.032 18.702 26.08C18.828 26.122 19.002 26.176 19.224 26.242C20.058 26.494 20.703 26.71 21.159 26.89C21.615 27.064 21.942 27.253 22.14 27.457C22.338 27.661 22.455 27.928 22.491 28.258C22.533 28.582 22.554 29.02 22.554 29.572V30.958C22.554 31.954 22.254 32.758 21.654 33.37C21.054 33.982 20.244 34.288 19.224 34.288ZM24.6932 34V20.5H26.4932L29.5712 29.248L28.9232 29.266V20.5H31.1732V34H29.3732L26.2952 25.252L26.9432 25.234V34H24.6932ZM36.9306 34.288C35.9166 34.288 35.1066 33.982 34.5006 33.37C33.9006 32.758 33.6006 31.954 33.6006 30.958V23.542C33.6006 22.54 33.9006 21.736 34.5006 21.13C35.1066 20.518 35.9166 20.212 36.9306 20.212C37.9506 20.212 38.7606 20.518 39.3606 21.13C39.9606 21.736 40.2606 22.54 40.2606 23.542V30.958C40.2606 31.954 39.9606 32.758 39.3606 33.37C38.7606 33.982 37.9506 34.288 36.9306 34.288ZM36.9306 31.858C37.2186 31.858 37.4406 31.777 37.5966 31.615C37.7526 31.447 37.8306 31.228 37.8306 30.958V23.542C37.8306 23.272 37.7526 23.056 37.5966 22.894C37.4406 22.726 37.2186 22.642 36.9306 22.642C36.6426 22.642 36.4206 22.726 36.2646 22.894C36.1086 23.056 36.0306 23.272 36.0306 23.542V30.958C36.0306 31.228 36.1086 31.447 36.2646 31.615C36.4206 31.777 36.6426 31.858 36.9306 31.858ZM43.3634 34L41.7074 20.5H44.1914L45.1454 29.842H44.8574L46.3514 20.5H48.3134L49.8074 29.842H49.5194L50.4734 20.5H52.9574L51.3014 34H48.6734L47.1434 25.882H47.5394L45.9914 34H43.3634ZM54.7693 34V20.5H58.0993C59.1193 20.5 59.9293 20.806 60.5293 21.418C61.1293 22.024 61.4293 22.828 61.4293 23.83V25.27C61.4293 25.792 61.3423 26.269 61.1683 26.701C61.0003 27.127 60.7573 27.484 60.4393 27.772L60.3853 26.818C60.7633 27.094 61.0603 27.463 61.2763 27.925C61.4983 28.387 61.6093 28.912 61.6093 29.5V30.67C61.6093 31.666 61.3093 32.47 60.7093 33.082C60.1093 33.694 59.2993 34 58.2793 34H54.7693ZM57.1993 31.57H58.2793C58.5673 31.57 58.7893 31.489 58.9453 31.327C59.1013 31.159 59.1793 30.94 59.1793 30.67V29.5C59.1793 29.23 59.1013 29.014 58.9453 28.852C58.7893 28.684 58.5673 28.6 58.2793 28.6H57.1993V31.57ZM57.1993 26.17H58.0993C58.3873 26.17 58.6093 26.089 58.7653 25.927C58.9213 25.759 58.9993 25.54 58.9993 25.27V23.83C58.9993 23.56 58.9213 23.344 58.7653 23.182C58.6093 23.014 58.3873 22.93 58.0993 22.93H57.1993V26.17ZM66.9541 34.288C65.9401 34.288 65.1301 33.982 64.5241 33.37C63.9241 32.758 63.6241 31.954 63.6241 30.958V23.542C63.6241 22.54 63.9241 21.736 64.5241 21.13C65.1301 20.518 65.9401 20.212 66.9541 20.212C67.9741 20.212 68.7841 20.518 69.3841 21.13C69.9841 21.736 70.2841 22.54 70.2841 23.542V30.958C70.2841 31.954 69.9841 32.758 69.3841 33.37C68.7841 33.982 67.9741 34.288 66.9541 34.288ZM66.9541 31.858C67.2421 31.858 67.4641 31.777 67.6201 31.615C67.7761 31.447 67.8541 31.228 67.8541 30.958V23.542C67.8541 23.272 67.7761 23.056 67.6201 22.894C67.4641 22.726 67.2421 22.642 66.9541 22.642C66.6661 22.642 66.4441 22.726 66.2881 22.894C66.1321 23.056 66.0541 23.272 66.0541 23.542V30.958C66.0541 31.228 66.1321 31.447 66.2881 31.615C66.4441 31.777 66.6661 31.858 66.9541 31.858ZM71.321 34L73.877 20.5H76.505L79.007 34H76.523L76.217 31.894H74.129L73.805 34H71.321ZM74.489 29.464H75.857L75.029 23.776H75.353L74.489 29.464ZM80.5916 34V20.5H83.9216C84.9416 20.5 85.7516 20.806 86.3516 21.418C86.9516 22.024 87.2516 22.828 87.2516 23.83V25.99C87.2516 26.626 87.1256 27.187 86.8736 27.673C86.6216 28.159 86.2616 28.552 85.7936 28.852L85.6136 28.06C86.1356 28.246 86.5376 28.522 86.8196 28.888C87.1076 29.254 87.2516 29.698 87.2516 30.22V34H84.8216V30.22C84.8216 29.95 84.7436 29.734 84.5876 29.572C84.4316 29.404 84.2096 29.32 83.9216 29.32H83.0216V34H80.5916ZM83.0216 26.89H83.9216C84.2096 26.89 84.4316 26.809 84.5876 26.647C84.7436 26.479 84.8216 26.26 84.8216 25.99V23.83C84.8216 23.56 84.7436 23.344 84.5876 23.182C84.4316 23.014 84.2096 22.93 83.9216 22.93H83.0216V26.89ZM89.6619 34V20.5H92.9919C94.0119 20.5 94.8219 20.806 95.4219 21.418C96.0219 22.024 96.3219 22.828 96.3219 23.83V30.67C96.3219 31.666 96.0219 32.47 95.4219 33.082C94.8219 33.694 94.0119 34 92.9919 34H89.6619ZM92.0919 31.57H92.9919C93.2799 31.57 93.5019 31.489 93.6579 31.327C93.8139 31.159 93.8919 30.94 93.8919 30.67V23.83C93.8919 23.56 93.8139 23.344 93.6579 23.182C93.5019 23.014 93.2799 22.93 92.9919 22.93H92.0919V31.57ZM101.109 34H98.6795V20.5H101.109V34ZM103.742 34V20.5H105.542L108.62 29.248L107.972 29.266V20.5H110.222V34H108.422L105.344 25.252L105.992 25.234V34H103.742ZM115.979 34.288C114.965 34.288 114.155 33.982 113.549 33.37C112.949 32.758 112.649 31.954 112.649 30.958V23.542C112.649 22.54 112.949 21.736 113.549 21.13C114.155 20.518 114.965 20.212 115.979 20.212C116.999 20.212 117.809 20.518 118.409 21.13C119.009 21.736 119.309 22.54 119.309 23.542V24.262H116.879V23.542C116.879 23.272 116.801 23.056 116.645 22.894C116.489 22.726 116.267 22.642 115.979 22.642C115.691 22.642 115.469 22.726 115.313 22.894C115.157 23.056 115.079 23.272 115.079 23.542V30.958C115.079 31.228 115.157 31.447 115.313 31.615C115.469 31.777 115.691 31.858 115.979 31.858C116.267 31.858 116.489 31.777 116.645 31.615C116.801 31.447 116.879 31.228 116.879 30.958V29.68H115.745V27.25H119.309V30.958C119.309 31.954 119.009 32.758 118.409 33.37C117.809 33.982 116.999 34.288 115.979 34.288ZM127.402 34L124.846 20.5H127.33L128.878 30.562H128.554L130.048 20.5H132.532L130.03 34H127.402ZM134.117 34V20.5H137.447C138.467 20.5 139.277 20.806 139.877 21.418C140.477 22.024 140.777 22.828 140.777 23.83V25.99C140.777 26.626 140.651 27.187 140.399 27.673C140.147 28.159 139.787 28.552 139.319 28.852L139.139 28.06C139.661 28.246 140.063 28.522 140.345 28.888C140.633 29.254 140.777 29.698 140.777 30.22V34H138.347V30.22C138.347 29.95 138.269 29.734 138.113 29.572C137.957 29.404 137.735 29.32 137.447 29.32H136.547V34H134.117ZM136.547 26.89H137.447C137.735 26.89 137.957 26.809 138.113 26.647C138.269 26.479 138.347 26.26 138.347 25.99V23.83C138.347 23.56 138.269 23.344 138.113 23.182C137.957 23.014 137.735 22.93 137.447 22.93H136.547V26.89ZM18.5595 55.24C17.7595 55.24 17.1145 54.985 16.6245 54.475C16.1395 53.965 15.897 53.295 15.897 52.465V52.09H17.022V52.465C17.022 52.96 17.162 53.36 17.442 53.665C17.722 53.965 18.0945 54.115 18.5595 54.115C19.0245 54.115 19.397 53.965 19.677 53.665C19.957 53.36 20.097 52.96 20.097 52.465V51.625C20.097 51.35 20.087 51.1325 20.067 50.9725C20.047 50.8075 19.992 50.675 19.902 50.575C19.812 50.475 19.662 50.3825 19.452 50.2975C19.242 50.2075 18.9445 50.1 18.5595 49.975C17.8945 49.755 17.3795 49.5725 17.0145 49.4275C16.6495 49.2825 16.387 49.1275 16.227 48.9625C16.072 48.7975 15.977 48.58 15.942 48.31C15.912 48.035 15.897 47.665 15.897 47.2V46.285C15.897 45.45 16.1395 44.78 16.6245 44.275C17.1145 43.765 17.7595 43.51 18.5595 43.51C19.3645 43.51 20.0095 43.765 20.4945 44.275C20.9795 44.78 21.222 45.45 21.222 46.285V46.66H20.097V46.285C20.097 45.79 19.957 45.3925 19.677 45.0925C19.397 44.7875 19.0245 44.635 18.5595 44.635C18.0945 44.635 17.722 44.7875 17.442 45.0925C17.162 45.3925 17.022 45.79 17.022 46.285V47.2C17.022 47.475 17.0295 47.695 17.0445 47.86C17.0645 48.02 17.1195 48.15 17.2095 48.25C17.2995 48.345 17.4495 48.4375 17.6595 48.5275C17.8745 48.6175 18.1745 48.725 18.5595 48.85C19.2245 49.065 19.7395 49.2475 20.1045 49.3975C20.4695 49.5425 20.7295 49.6975 20.8845 49.8625C21.0445 50.0275 21.1395 50.245 21.1695 50.515C21.2045 50.785 21.222 51.155 21.222 51.625V52.465C21.222 53.295 20.9795 53.965 20.4945 54.475C20.0095 54.985 19.3645 55.24 18.5595 55.24ZM23.1522 55V46.8625H24.2397V47.95L24.0522 47.7325C24.2422 47.3925 24.4947 47.1325 24.8097 46.9525C25.1247 46.7675 25.4922 46.675 25.9122 46.675C26.5922 46.675 27.1397 46.91 27.5547 47.38C27.9697 47.85 28.1772 48.4825 28.1772 49.2775V55H27.0897V49.2775C27.0897 48.8225 26.9597 48.4575 26.6997 48.1825C26.4447 47.9025 26.1047 47.7625 25.6797 47.7625C25.2447 47.7625 24.8947 47.9025 24.6297 48.1825C24.3697 48.4575 24.2397 48.8225 24.2397 49.2775V55H23.1522ZM32.5527 55.18C32.0427 55.18 31.5952 55.07 31.2102 54.85C30.8252 54.63 30.5227 54.3225 30.3027 53.9275C30.0827 53.5275 29.9727 53.0625 29.9727 52.5325V49.315C29.9727 48.795 30.0827 48.3375 30.3027 47.9425C30.5227 47.5425 30.8252 47.2325 31.2102 47.0125C31.5952 46.7875 32.0427 46.675 32.5527 46.675C33.3177 46.675 33.9352 46.9175 34.4052 47.4025C34.8752 47.8875 35.1102 48.525 35.1102 49.315V52.5325C35.1102 53.3225 34.8752 53.9625 34.4052 54.4525C33.9352 54.9375 33.3177 55.18 32.5527 55.18ZM32.5527 54.0925C33.0077 54.0925 33.3652 53.9525 33.6252 53.6725C33.8902 53.3925 34.0227 53.025 34.0227 52.57V49.2775C34.0227 48.8225 33.8902 48.4575 33.6252 48.1825C33.3652 47.9025 33.0077 47.7625 32.5527 47.7625C32.0977 47.7625 31.7352 47.9025 31.4652 48.1825C31.1952 48.4575 31.0602 48.8225 31.0602 49.2775V52.57C31.0602 53.025 31.1952 53.3925 31.4652 53.6725C31.7352 53.9525 32.0977 54.0925 32.5527 54.0925ZM37.552 55L36.2545 46.8625H37.387L38.2945 53.8075L38.1295 53.7925L39.4645 46.8625H40.492L41.827 53.7925L41.6695 53.8075L42.562 46.8625H43.702L42.4045 55H41.1745L39.8845 48.73H40.0945L38.7895 55H37.552ZM47.9284 55.18C47.4984 55.18 47.1284 55.0925 46.8184 54.9175C46.5134 54.7425 46.2709 54.4975 46.0909 54.1825L46.2709 53.9425V55H45.1834V43.75H46.2709V47.92L46.0909 47.6725C46.2709 47.3625 46.5134 47.12 46.8184 46.945C47.1284 46.765 47.4984 46.675 47.9284 46.675C48.3734 46.675 48.7734 46.775 49.1284 46.975C49.4884 47.175 49.7734 47.47 49.9834 47.86C50.1934 48.245 50.2984 48.7175 50.2984 49.2775V52.57C50.2984 53.135 50.1934 53.6125 49.9834 54.0025C49.7734 54.3925 49.4884 54.6875 49.1284 54.8875C48.7734 55.0825 48.3734 55.18 47.9284 55.18ZM47.7259 54.0925C48.1909 54.0925 48.5534 53.9525 48.8134 53.6725C49.0784 53.3925 49.2109 53.025 49.2109 52.57V49.2775C49.2109 48.8225 49.0784 48.4575 48.8134 48.1825C48.5534 47.9025 48.1934 47.7625 47.7334 47.7625C47.2684 47.7625 46.9084 47.9025 46.6534 48.1825C46.3984 48.4575 46.2709 48.8225 46.2709 49.2775V52.5775C46.2709 53.0325 46.3984 53.4 46.6534 53.68C46.9084 53.955 47.2659 54.0925 47.7259 54.0925ZM54.5693 55.18C54.0593 55.18 53.6118 55.07 53.2268 54.85C52.8418 54.63 52.5393 54.3225 52.3193 53.9275C52.0993 53.5275 51.9893 53.0625 51.9893 52.5325V49.315C51.9893 48.795 52.0993 48.3375 52.3193 47.9425C52.5393 47.5425 52.8418 47.2325 53.2268 47.0125C53.6118 46.7875 54.0593 46.675 54.5693 46.675C55.3343 46.675 55.9518 46.9175 56.4218 47.4025C56.8918 47.8875 57.1268 48.525 57.1268 49.315V52.5325C57.1268 53.3225 56.8918 53.9625 56.4218 54.4525C55.9518 54.9375 55.3343 55.18 54.5693 55.18ZM54.5693 54.0925C55.0243 54.0925 55.3818 53.9525 55.6418 53.6725C55.9068 53.3925 56.0393 53.025 56.0393 52.57V49.2775C56.0393 48.8225 55.9068 48.4575 55.6418 48.1825C55.3818 47.9025 55.0243 47.7625 54.5693 47.7625C54.1143 47.7625 53.7518 47.9025 53.4818 48.1825C53.2118 48.4575 53.0768 48.8225 53.0768 49.2775V52.57C53.0768 53.025 53.2118 53.3925 53.4818 53.6725C53.7518 53.9525 54.1143 54.0925 54.5693 54.0925ZM60.8862 55.18C60.1362 55.18 59.5562 54.9725 59.1462 54.5575C58.7362 54.1425 58.5312 53.6175 58.5312 52.9825C58.5312 52.5875 58.6037 52.26 58.7487 52C58.8937 51.735 59.0787 51.52 59.3037 51.355C59.5337 51.19 59.7762 51.0575 60.0312 50.9575C60.3362 50.8325 60.6462 50.735 60.9612 50.665C61.2812 50.59 61.5762 50.5125 61.8462 50.4325C62.1162 50.3475 62.3337 50.2325 62.4987 50.0875C62.6637 49.9425 62.7462 49.7375 62.7462 49.4725V49.2775C62.7462 48.8225 62.6087 48.4575 62.3337 48.1825C62.0637 47.9025 61.7037 47.7625 61.2537 47.7625C60.7987 47.7625 60.4387 47.9025 60.1737 48.1825C59.9137 48.4575 59.7837 48.8225 59.7837 49.2775V49.5025H58.6962V49.315C58.6962 48.525 58.9312 47.8875 59.4012 47.4025C59.8712 46.9175 60.4887 46.675 61.2537 46.675C61.7587 46.675 62.2037 46.7875 62.5887 47.0125C62.9787 47.2325 63.2837 47.54 63.5037 47.935C63.7237 48.33 63.8337 48.79 63.8337 49.315V55H62.7462V53.875L62.9262 54.115C62.7362 54.455 62.4687 54.7175 62.1237 54.9025C61.7787 55.0875 61.3662 55.18 60.8862 55.18ZM61.1112 54.145C61.6212 54.145 62.0212 54.0025 62.3112 53.7175C62.6012 53.4275 62.7462 53.015 62.7462 52.48V51.04C62.4412 51.23 62.1012 51.36 61.7262 51.43C61.3512 51.495 60.9937 51.585 60.6537 51.7C60.3537 51.8 60.1062 51.9425 59.9112 52.1275C59.7162 52.3075 59.6187 52.565 59.6187 52.9C59.6187 53.265 59.7487 53.565 60.0087 53.8C60.2687 54.03 60.6362 54.145 61.1112 54.145ZM65.8377 55V46.8625H66.9252V48.0325L66.7377 47.8075C66.9277 47.4725 67.1802 47.215 67.4952 47.035C67.8102 46.855 68.1752 46.765 68.5902 46.765H68.9427V47.8525H68.3652C67.9302 47.8525 67.5802 47.9875 67.3152 48.2575C67.0552 48.5275 66.9252 48.89 66.9252 49.345V55H65.8377ZM72.2386 55.18C71.7936 55.18 71.3911 55.0825 71.0311 54.8875C70.6761 54.6875 70.3936 54.3925 70.1836 54.0025C69.9736 53.6125 69.8686 53.135 69.8686 52.57V49.2775C69.8686 48.7175 69.9736 48.245 70.1836 47.86C70.3936 47.47 70.6761 47.175 71.0311 46.975C71.3911 46.775 71.7936 46.675 72.2386 46.675C72.6686 46.675 73.0361 46.765 73.3411 46.945C73.6511 47.12 73.8961 47.3625 74.0761 47.6725L73.8961 47.92V43.75H74.9836V55H73.8961V53.9425L74.0761 54.1825C73.8961 54.4975 73.6511 54.7425 73.3411 54.9175C73.0361 55.0925 72.6686 55.18 72.2386 55.18ZM72.4411 54.0925C72.9011 54.0925 73.2586 53.955 73.5136 53.68C73.7686 53.4 73.8961 53.0325 73.8961 52.5775V49.2775C73.8961 48.8225 73.7661 48.4575 73.5061 48.1825C73.2511 47.9025 72.8936 47.7625 72.4336 47.7625C71.9736 47.7625 71.6111 47.9025 71.3461 48.1825C71.0861 48.4575 70.9561 48.8225 70.9561 49.2775V52.57C70.9561 53.025 71.0861 53.3925 71.3461 53.6725C71.6111 53.9525 71.9761 54.0925 72.4411 54.0925ZM77.117 55V46.8625H78.2045V55H77.117ZM77.117 45.955V44.2H78.2045V45.955H77.117ZM80.3397 55V46.8625H81.4272V47.95L81.2397 47.7325C81.4297 47.3925 81.6822 47.1325 81.9972 46.9525C82.3122 46.7675 82.6797 46.675 83.0997 46.675C83.7797 46.675 84.3272 46.91 84.7422 47.38C85.1572 47.85 85.3647 48.4825 85.3647 49.2775V55H84.2772V49.2775C84.2772 48.8225 84.1472 48.4575 83.8872 48.1825C83.6322 47.9025 83.2922 47.7625 82.8672 47.7625C82.4322 47.7625 82.0822 47.9025 81.8172 48.1825C81.5572 48.4575 81.4272 48.8225 81.4272 49.2775V55H80.3397ZM89.5827 57.745C88.8227 57.745 88.2052 57.5 87.7302 57.01C87.2602 56.525 87.0252 55.885 87.0252 55.09V54.895H88.1127V55.1275C88.1127 55.5825 88.2427 55.95 88.5027 56.23C88.7677 56.515 89.1277 56.6575 89.5827 56.6575C90.0377 56.6575 90.4002 56.515 90.6702 56.23C90.9402 55.95 91.0752 55.5825 91.0752 55.1275V52.8925L91.2627 53.1325C91.0777 53.4475 90.8302 53.6925 90.5202 53.8675C90.2152 54.0425 89.8502 54.13 89.4252 54.13C88.9802 54.13 88.5777 54.0325 88.2177 53.8375C87.8577 53.6375 87.5727 53.3425 87.3627 52.9525C87.1527 52.5625 87.0477 52.085 87.0477 51.52V49.2775C87.0477 48.7175 87.1527 48.245 87.3627 47.86C87.5727 47.47 87.8577 47.175 88.2177 46.975C88.5777 46.775 88.9802 46.675 89.4252 46.675C89.8502 46.675 90.2152 46.765 90.5202 46.945C90.8302 47.12 91.0777 47.3625 91.2627 47.6725L91.0752 47.92V46.8625H92.1627V55.0975C92.1627 55.6275 92.0527 56.09 91.8327 56.485C91.6127 56.885 91.3102 57.195 90.9252 57.415C90.5402 57.635 90.0927 57.745 89.5827 57.745ZM89.6202 53.0425C90.0802 53.0425 90.4377 52.905 90.6927 52.63C90.9477 52.35 91.0752 51.9825 91.0752 51.5275V49.2775C91.0752 48.8225 90.9477 48.4575 90.6927 48.1825C90.4377 47.9025 90.0802 47.7625 89.6202 47.7625C89.1552 47.7625 88.7902 47.9025 88.5252 48.1825C88.2652 48.4575 88.1352 48.8225 88.1352 49.2775V51.52C88.1352 51.975 88.2652 52.3425 88.5252 52.6225C88.7902 52.9025 89.1552 53.0425 89.6202 53.0425ZM98.1526 55L96.8551 46.8625H97.9876L98.8951 53.8075L98.7301 53.7925L100.065 46.8625H101.093L102.428 53.7925L102.27 53.8075L103.163 46.8625H104.303L103.005 55H101.775L100.485 48.73H100.695L99.3901 55H98.1526ZM105.784 55V46.8625H106.871V55H105.784ZM105.784 45.955V44.2H106.871V45.955H105.784ZM112.059 55.09C111.284 55.09 110.662 54.845 110.192 54.355C109.727 53.86 109.494 53.1975 109.494 52.3675V47.875H108.032V46.8475H109.494V44.8H110.582V46.8475H112.607V47.875H110.582V52.3675C110.582 52.8625 110.717 53.26 110.987 53.56C111.257 53.855 111.614 54.0025 112.059 54.0025H112.607V55.09H112.059ZM113.987 55V43.75H115.075V47.9275L114.895 47.695C115.08 47.37 115.327 47.1175 115.637 46.9375C115.952 46.7575 116.322 46.6675 116.747 46.6675C117.177 46.6675 117.562 46.765 117.902 46.96C118.247 47.15 118.517 47.43 118.712 47.8C118.912 48.17 119.012 48.6225 119.012 49.1575V55H117.925V49.27C117.925 48.81 117.795 48.4425 117.535 48.1675C117.28 47.8925 116.94 47.755 116.515 47.755C116.08 47.755 115.73 47.8925 115.465 48.1675C115.205 48.4425 115.075 48.81 115.075 49.27V55H113.987ZM126.176 55V49.225L123.431 43.75H124.586L126.941 48.505H126.528L128.876 43.75H130.031L127.301 49.225V55H126.176ZM132.924 55.18C132.414 55.18 131.966 55.07 131.581 54.85C131.196 54.63 130.894 54.3225 130.674 53.9275C130.454 53.5275 130.344 53.0625 130.344 52.5325V49.315C130.344 48.795 130.454 48.3375 130.674 47.9425C130.894 47.5425 131.196 47.2325 131.581 47.0125C131.966 46.7875 132.414 46.675 132.924 46.675C133.689 46.675 134.306 46.9175 134.776 47.4025C135.246 47.8875 135.481 48.525 135.481 49.315V51.0925H131.214V50.0425H134.394V49.2775C134.394 48.8225 134.261 48.4575 133.996 48.1825C133.736 47.9025 133.379 47.7625 132.924 47.7625C132.469 47.7625 132.106 47.9025 131.836 48.1825C131.566 48.4575 131.431 48.8225 131.431 49.2775V52.57C131.431 53.025 131.566 53.3925 131.836 53.6725C132.106 53.9525 132.469 54.0925 132.924 54.0925C133.379 54.0925 133.736 53.9525 133.996 53.6725C134.261 53.3925 134.394 53.025 134.394 52.57V52.3825H135.481V52.5325C135.481 53.3225 135.246 53.9625 134.776 54.4525C134.306 54.9375 133.689 55.18 132.924 55.18ZM140.375 55.09C139.6 55.09 138.977 54.845 138.507 54.355C138.042 53.86 137.81 53.1975 137.81 52.3675V47.875H136.347V46.8475H137.81V44.8H138.897V46.8475H140.922V47.875H138.897V52.3675C138.897 52.8625 139.032 53.26 139.302 53.56C139.572 53.855 139.93 54.0025 140.375 54.0025H140.922V55.09H140.375ZM142.303 55V46.8625H143.39V55H142.303ZM142.303 45.955V44.2H143.39V45.955H142.303ZM147.033 52.4125V51.865C147.033 51.41 147.105 51.01 147.25 50.665C147.395 50.315 147.575 50.0025 147.79 49.7275C148.01 49.4475 148.228 49.1825 148.443 48.9325C148.658 48.6825 148.838 48.43 148.983 48.175C149.133 47.915 149.208 47.63 149.208 47.32V46.285C149.208 45.79 149.068 45.3925 148.788 45.0925C148.508 44.7875 148.135 44.635 147.67 44.635C147.205 44.635 146.833 44.7875 146.553 45.0925C146.273 45.3925 146.133 45.79 146.133 46.285V46.66H145.008V46.285C145.008 45.45 145.25 44.78 145.735 44.275C146.225 43.765 146.87 43.51 147.67 43.51C148.475 43.51 149.12 43.765 149.605 44.275C150.09 44.785 150.333 45.455 150.333 46.285V47.32C150.333 47.685 150.258 48.02 150.108 48.325C149.963 48.625 149.783 48.91 149.568 49.18C149.353 49.45 149.135 49.7225 148.915 49.9975C148.7 50.2675 148.518 50.555 148.368 50.86C148.223 51.165 148.15 51.5 148.15 51.865V52.4125H147.033ZM147.033 55V53.125H148.158V55H147.033Z" fill="black"/>
</svg>
