<svg width="178" height="104" viewBox="0 0 178 104" fill="none" xmlns="http://www.w3.org/2000/svg">
<rect x="5.36133" y="6" width="172.639" height="98" fill="#716F6C"/>
<rect width="172.639" height="98" fill="#FEF8EB"/>
<path d="M17.172 34L15.516 20.5H18L18.954 29.842H18.666L20.16 20.5H22.122L23.616 29.842H23.328L24.282 20.5H26.766L25.11 34H22.482L20.952 25.882H21.348L19.8 34H17.172ZM27.3581 34L29.9141 20.5H32.5421L35.0441 34H32.5601L32.2541 31.894H30.1661L29.8421 34H27.3581ZM30.5261 29.464H31.8941L31.0661 23.776H31.3901L30.5261 29.464ZM37.6498 34V27.88L34.8238 20.5H37.3078L39.2158 26.206H38.5318L40.3858 20.5H42.8698L40.0798 27.88V34H37.6498ZM48.5642 34V20.5H51.8942C52.9142 20.5 53.7242 20.806 54.3242 21.418C54.9242 22.024 55.2242 22.828 55.2242 23.83V25.27C55.2242 25.792 55.1372 26.269 54.9632 26.701C54.7952 27.127 54.5522 27.484 54.2342 27.772L54.1802 26.818C54.5582 27.094 54.8552 27.463 55.0712 27.925C55.2932 28.387 55.4042 28.912 55.4042 29.5V30.67C55.4042 31.666 55.1042 32.47 54.5042 33.082C53.9042 33.694 53.0942 34 52.0742 34H48.5642ZM50.9942 31.57H52.0742C52.3622 31.57 52.5842 31.489 52.7402 31.327C52.8962 31.159 52.9742 30.94 52.9742 30.67V29.5C52.9742 29.23 52.8962 29.014 52.7402 28.852C52.5842 28.684 52.3622 28.6 52.0742 28.6H50.9942V31.57ZM50.9942 26.17H51.8942C52.1822 26.17 52.4042 26.089 52.5602 25.927C52.7162 25.759 52.7942 25.54 52.7942 25.27V23.83C52.7942 23.56 52.7162 23.344 52.5602 23.182C52.4042 23.014 52.1822 22.93 51.8942 22.93H50.9942V26.17ZM56.573 34L59.129 20.5H61.757L64.259 34H61.775L61.469 31.894H59.381L59.057 34H56.573ZM59.741 29.464H61.109L60.281 23.776H60.605L59.741 29.464ZM71.954 30.238V30.958C71.954 31.954 71.654 32.758 71.054 33.37C70.454 33.982 69.644 34.288 68.624 34.288C67.61 34.288 66.8 33.982 66.194 33.37C65.594 32.758 65.294 31.954 65.294 30.958V23.542C65.294 22.54 65.594 21.736 66.194 21.13C66.8 20.518 67.61 20.212 68.624 20.212C69.644 20.212 70.454 20.518 71.054 21.13C71.654 21.736 71.954 22.54 71.954 23.542V24.262H69.524V23.542C69.524 23.272 69.446 23.056 69.29 22.894C69.134 22.726 68.912 22.642 68.624 22.642C68.336 22.642 68.114 22.726 67.958 22.894C67.802 23.056 67.724 23.272 67.724 23.542V30.958C67.724 31.228 67.802 31.447 67.958 31.615C68.114 31.777 68.336 31.858 68.624 31.858C68.912 31.858 69.134 31.777 69.29 31.615C69.446 31.447 69.524 31.228 69.524 30.958V30.238H71.954ZM78.6467 34L76.5767 27.862L76.1267 28.546V24.568L78.8267 20.5H81.4367L78.2507 25.324L81.2567 34H78.6467ZM73.8767 34V20.5H76.3067V34H73.8767ZM87.2185 34V20.5H89.6485V27.25H91.0885V20.5H93.5185V34H91.0885V29.68H89.6485V34H87.2185ZM99.2802 34.288C98.2662 34.288 97.4562 33.982 96.8502 33.37C96.2502 32.758 95.9502 31.954 95.9502 30.958V23.542C95.9502 22.54 96.2502 21.736 96.8502 21.13C97.4562 20.518 98.2662 20.212 99.2802 20.212C100.3 20.212 101.11 20.518 101.71 21.13C102.31 21.736 102.61 22.54 102.61 23.542V30.958C102.61 31.954 102.31 32.758 101.71 33.37C101.11 33.982 100.3 34.288 99.2802 34.288ZM99.2802 31.858C99.5682 31.858 99.7902 31.777 99.9462 31.615C100.102 31.447 100.18 31.228 100.18 30.958V23.542C100.18 23.272 100.102 23.056 99.9462 22.894C99.7902 22.726 99.5682 22.642 99.2802 22.642C98.9922 22.642 98.7702 22.726 98.6142 22.894C98.4582 23.056 98.3802 23.272 98.3802 23.542V30.958C98.3802 31.228 98.4582 31.447 98.6142 31.615C98.7702 31.777 98.9922 31.858 99.2802 31.858ZM105.043 34V20.5H107.203L109.975 30.958H109.399L112.171 20.5H114.331V34H112.081V27.142L112.369 27.196L110.461 34H108.913L107.005 27.196L107.293 27.142V34H105.043ZM122.541 20.5V22.93H119.391V25.63H122.055V28.06H119.391V31.57H122.541V34H116.961V20.5H122.541ZM15.672 55V54.055C15.672 53.495 15.772 52.9925 15.972 52.5475C16.177 52.0975 16.4395 51.6875 16.7595 51.3175C17.0795 50.9425 17.417 50.595 17.772 50.275C18.127 49.95 18.4645 49.6325 18.7845 49.3225C19.1045 49.0125 19.3645 48.695 19.5645 48.37C19.7695 48.045 19.872 47.695 19.872 47.32V46.285C19.872 45.79 19.732 45.3925 19.452 45.0925C19.172 44.7875 18.7995 44.635 18.3345 44.635C17.8695 44.635 17.497 44.7875 17.217 45.0925C16.937 45.3925 16.797 45.79 16.797 46.285V46.66H15.672V46.285C15.672 45.45 15.9145 44.78 16.3995 44.275C16.8895 43.765 17.5345 43.51 18.3345 43.51C19.1395 43.51 19.7845 43.765 20.2695 44.275C20.7545 44.785 20.997 45.455 20.997 46.285V47.32C20.997 47.76 20.897 48.1725 20.697 48.5575C20.497 48.9375 20.2395 49.2975 19.9245 49.6375C19.6095 49.9775 19.2745 50.31 18.9195 50.635C18.5695 50.955 18.237 51.28 17.922 51.61C17.607 51.935 17.3495 52.2725 17.1495 52.6225C16.9495 52.9675 16.8495 53.34 16.8495 53.74V54.385L16.3395 53.875H20.997V55H15.672ZM23.0263 55V43.75H25.5763C26.3813 43.75 27.0263 44.005 27.5113 44.515C27.9963 45.02 28.2388 45.69 28.2388 46.525V52.225C28.2388 53.055 27.9963 53.725 27.5113 54.235C27.0263 54.745 26.3813 55 25.5763 55H23.0263ZM24.1513 53.875H25.5763C26.0413 53.875 26.4138 53.725 26.6938 53.425C26.9738 53.12 27.1138 52.72 27.1138 52.225V46.525C27.1138 46.03 26.9738 45.6325 26.6938 45.3325C26.4138 45.0275 26.0413 44.875 25.5763 44.875H24.1513V53.875ZM36.0936 55.24C35.2936 55.24 34.6486 54.985 34.1586 54.475C33.6736 53.965 33.4311 53.295 33.4311 52.465V52.09H34.5561V52.465C34.5561 52.96 34.6961 53.36 34.9761 53.665C35.2561 53.965 35.6286 54.115 36.0936 54.115C36.5586 54.115 36.9311 53.965 37.2111 53.665C37.4911 53.36 37.6311 52.96 37.6311 52.465V51.625C37.6311 51.35 37.6211 51.1325 37.6011 50.9725C37.5811 50.8075 37.5261 50.675 37.4361 50.575C37.3461 50.475 37.1961 50.3825 36.9861 50.2975C36.7761 50.2075 36.4786 50.1 36.0936 49.975C35.4286 49.755 34.9136 49.5725 34.5486 49.4275C34.1836 49.2825 33.9211 49.1275 33.7611 48.9625C33.6061 48.7975 33.5111 48.58 33.4761 48.31C33.4461 48.035 33.4311 47.665 33.4311 47.2V46.285C33.4311 45.45 33.6736 44.78 34.1586 44.275C34.6486 43.765 35.2936 43.51 36.0936 43.51C36.8986 43.51 37.5436 43.765 38.0286 44.275C38.5136 44.78 38.7561 45.45 38.7561 46.285V46.66H37.6311V46.285C37.6311 45.79 37.4911 45.3925 37.2111 45.0925C36.9311 44.7875 36.5586 44.635 36.0936 44.635C35.6286 44.635 35.2561 44.7875 34.9761 45.0925C34.6961 45.3925 34.5561 45.79 34.5561 46.285V47.2C34.5561 47.475 34.5636 47.695 34.5786 47.86C34.5986 48.02 34.6536 48.15 34.7436 48.25C34.8336 48.345 34.9836 48.4375 35.1936 48.5275C35.4086 48.6175 35.7086 48.725 36.0936 48.85C36.7586 49.065 37.2736 49.2475 37.6386 49.3975C38.0036 49.5425 38.2636 49.6975 38.4186 49.8625C38.5786 50.0275 38.6736 50.245 38.7036 50.515C38.7386 50.785 38.7561 51.155 38.7561 51.625V52.465C38.7561 53.295 38.5136 53.965 38.0286 54.475C37.5436 54.985 36.8986 55.24 36.0936 55.24ZM40.6863 55V46.8625H41.7738V55H40.6863ZM40.6863 45.955V44.2H41.7738V45.955H40.6863ZM46.0765 55.18C45.6315 55.18 45.229 55.0825 44.869 54.8875C44.514 54.6875 44.2315 54.3925 44.0215 54.0025C43.8115 53.6125 43.7065 53.135 43.7065 52.57V49.2775C43.7065 48.7175 43.8115 48.245 44.0215 47.86C44.2315 47.47 44.514 47.175 44.869 46.975C45.229 46.775 45.6315 46.675 46.0765 46.675C46.5065 46.675 46.874 46.765 47.179 46.945C47.489 47.12 47.734 47.3625 47.914 47.6725L47.734 47.92V43.75H48.8215V55H47.734V53.9425L47.914 54.1825C47.734 54.4975 47.489 54.7425 47.179 54.9175C46.874 55.0925 46.5065 55.18 46.0765 55.18ZM46.279 54.0925C46.739 54.0925 47.0965 53.955 47.3515 53.68C47.6065 53.4 47.734 53.0325 47.734 52.5775V49.2775C47.734 48.8225 47.604 48.4575 47.344 48.1825C47.089 47.9025 46.7315 47.7625 46.2715 47.7625C45.8115 47.7625 45.449 47.9025 45.184 48.1825C44.924 48.4575 44.794 48.8225 44.794 49.2775V52.57C44.794 53.025 44.924 53.3925 45.184 53.6725C45.449 53.9525 45.814 54.0925 46.279 54.0925ZM53.2949 55.18C52.7849 55.18 52.3374 55.07 51.9524 54.85C51.5674 54.63 51.2649 54.3225 51.0449 53.9275C50.8249 53.5275 50.7149 53.0625 50.7149 52.5325V49.315C50.7149 48.795 50.8249 48.3375 51.0449 47.9425C51.2649 47.5425 51.5674 47.2325 51.9524 47.0125C52.3374 46.7875 52.7849 46.675 53.2949 46.675C54.0599 46.675 54.6774 46.9175 55.1474 47.4025C55.6174 47.8875 55.8524 48.525 55.8524 49.315V51.0925H51.5849V50.0425H54.7649V49.2775C54.7649 48.8225 54.6324 48.4575 54.3674 48.1825C54.1074 47.9025 53.7499 47.7625 53.2949 47.7625C52.8399 47.7625 52.4774 47.9025 52.2074 48.1825C51.9374 48.4575 51.8024 48.8225 51.8024 49.2775V52.57C51.8024 53.025 51.9374 53.3925 52.2074 53.6725C52.4774 53.9525 52.8399 54.0925 53.2949 54.0925C53.7499 54.0925 54.1074 53.9525 54.3674 53.6725C54.6324 53.3925 54.7649 53.025 54.7649 52.57V52.3825H55.8524V52.5325C55.8524 53.3225 55.6174 53.9625 55.1474 54.4525C54.6774 54.9375 54.0599 55.18 53.2949 55.18ZM63.3837 55.24C62.5837 55.24 61.9387 54.985 61.4487 54.475C60.9637 53.965 60.7212 53.295 60.7212 52.465V52.09H61.8462V52.465C61.8462 52.96 61.9862 53.36 62.2662 53.665C62.5462 53.965 62.9187 54.115 63.3837 54.115C63.8487 54.115 64.2212 53.965 64.5012 53.665C64.7812 53.36 64.9212 52.96 64.9212 52.465V51.625C64.9212 51.35 64.9112 51.1325 64.8912 50.9725C64.8712 50.8075 64.8162 50.675 64.7262 50.575C64.6362 50.475 64.4862 50.3825 64.2762 50.2975C64.0662 50.2075 63.7687 50.1 63.3837 49.975C62.7187 49.755 62.2037 49.5725 61.8387 49.4275C61.4737 49.2825 61.2112 49.1275 61.0512 48.9625C60.8962 48.7975 60.8012 48.58 60.7662 48.31C60.7362 48.035 60.7212 47.665 60.7212 47.2V46.285C60.7212 45.45 60.9637 44.78 61.4487 44.275C61.9387 43.765 62.5837 43.51 63.3837 43.51C64.1887 43.51 64.8337 43.765 65.3187 44.275C65.8037 44.78 66.0462 45.45 66.0462 46.285V46.66H64.9212V46.285C64.9212 45.79 64.7812 45.3925 64.5012 45.0925C64.2212 44.7875 63.8487 44.635 63.3837 44.635C62.9187 44.635 62.5462 44.7875 62.2662 45.0925C61.9862 45.3925 61.8462 45.79 61.8462 46.285V47.2C61.8462 47.475 61.8537 47.695 61.8687 47.86C61.8887 48.02 61.9437 48.15 62.0337 48.25C62.1237 48.345 62.2737 48.4375 62.4837 48.5275C62.6987 48.6175 62.9987 48.725 63.3837 48.85C64.0487 49.065 64.5637 49.2475 64.9287 49.3975C65.2937 49.5425 65.5537 49.6975 65.7087 49.8625C65.8687 50.0275 65.9637 50.245 65.9937 50.515C66.0287 50.785 66.0462 51.155 66.0462 51.625V52.465C66.0462 53.295 65.8037 53.965 65.3187 54.475C64.8337 54.985 64.1887 55.24 63.3837 55.24ZM70.3164 55.18C69.8064 55.18 69.3589 55.07 68.9739 54.85C68.5889 54.63 68.2864 54.3225 68.0664 53.9275C67.8464 53.5275 67.7364 53.0625 67.7364 52.5325V49.315C67.7364 48.795 67.8464 48.3375 68.0664 47.9425C68.2864 47.5425 68.5889 47.2325 68.9739 47.0125C69.3589 46.7875 69.8064 46.675 70.3164 46.675C71.0814 46.675 71.6989 46.9175 72.1689 47.4025C72.6389 47.8875 72.8739 48.525 72.8739 49.315V49.465H71.7864V49.2775C71.7864 48.8225 71.6539 48.4575 71.3889 48.1825C71.1289 47.9025 70.7714 47.7625 70.3164 47.7625C69.8614 47.7625 69.4989 47.9025 69.2289 48.1825C68.9589 48.4575 68.8239 48.8225 68.8239 49.2775V52.57C68.8239 53.025 68.9589 53.3925 69.2289 53.6725C69.4989 53.9525 69.8614 54.0925 70.3164 54.0925C70.7714 54.0925 71.1289 53.9525 71.3889 53.6725C71.6539 53.3925 71.7864 53.025 71.7864 52.57V52.3825H72.8739V52.5325C72.8739 53.3225 72.6389 53.9625 72.1689 54.4525C71.6989 54.9375 71.0814 55.18 70.3164 55.18ZM74.4949 55V46.8625H75.5824V48.0325L75.3949 47.8075C75.5849 47.4725 75.8374 47.215 76.1524 47.035C76.4674 46.855 76.8324 46.765 77.2474 46.765H77.5999V47.8525H77.0224C76.5874 47.8525 76.2374 47.9875 75.9724 48.2575C75.7124 48.5275 75.5824 48.89 75.5824 49.345V55H74.4949ZM81.0683 55.18C80.5583 55.18 80.1108 55.07 79.7258 54.85C79.3408 54.63 79.0383 54.3225 78.8183 53.9275C78.5983 53.5275 78.4883 53.0625 78.4883 52.5325V49.315C78.4883 48.795 78.5983 48.3375 78.8183 47.9425C79.0383 47.5425 79.3408 47.2325 79.7258 47.0125C80.1108 46.7875 80.5583 46.675 81.0683 46.675C81.8333 46.675 82.4508 46.9175 82.9208 47.4025C83.3908 47.8875 83.6258 48.525 83.6258 49.315V52.5325C83.6258 53.3225 83.3908 53.9625 82.9208 54.4525C82.4508 54.9375 81.8333 55.18 81.0683 55.18ZM81.0683 54.0925C81.5233 54.0925 81.8808 53.9525 82.1408 53.6725C82.4058 53.3925 82.5383 53.025 82.5383 52.57V49.2775C82.5383 48.8225 82.4058 48.4575 82.1408 48.1825C81.8808 47.9025 81.5233 47.7625 81.0683 47.7625C80.6133 47.7625 80.2508 47.9025 79.9808 48.1825C79.7108 48.4575 79.5758 48.8225 79.5758 49.2775V52.57C79.5758 53.025 79.7108 53.3925 79.9808 53.6725C80.2508 53.9525 80.6133 54.0925 81.0683 54.0925ZM85.5252 55V43.75H86.6127V55H85.5252ZM88.7479 55V43.75H89.8354V55H88.7479ZM94.3105 55.18C93.8005 55.18 93.353 55.07 92.968 54.85C92.583 54.63 92.2805 54.3225 92.0605 53.9275C91.8405 53.5275 91.7305 53.0625 91.7305 52.5325V49.315C91.7305 48.795 91.8405 48.3375 92.0605 47.9425C92.2805 47.5425 92.583 47.2325 92.968 47.0125C93.353 46.7875 93.8005 46.675 94.3105 46.675C95.0755 46.675 95.693 46.9175 96.163 47.4025C96.633 47.8875 96.868 48.525 96.868 49.315V51.0925H92.6005V50.0425H95.7805V49.2775C95.7805 48.8225 95.648 48.4575 95.383 48.1825C95.123 47.9025 94.7655 47.7625 94.3105 47.7625C93.8555 47.7625 93.493 47.9025 93.223 48.1825C92.953 48.4575 92.818 48.8225 92.818 49.2775V52.57C92.818 53.025 92.953 53.3925 93.223 53.6725C93.493 53.9525 93.8555 54.0925 94.3105 54.0925C94.7655 54.0925 95.123 53.9525 95.383 53.6725C95.648 53.3925 95.7805 53.025 95.7805 52.57V52.3825H96.868V52.5325C96.868 53.3225 96.633 53.9625 96.163 54.4525C95.693 54.9375 95.0755 55.18 94.3105 55.18ZM98.7088 55V46.8625H99.7963V48.0325L99.6088 47.8075C99.7988 47.4725 100.051 47.215 100.366 47.035C100.681 46.855 101.046 46.765 101.461 46.765H101.814V47.8525H101.236C100.801 47.8525 100.451 47.9875 100.186 48.2575C99.9263 48.5275 99.7963 48.89 99.7963 49.345V55H98.7088Z" fill="black"/>
</svg>
