<svg width="206" height="205" viewBox="0 0 206 205" fill="none" xmlns="http://www.w3.org/2000/svg">
<path d="M68.5433 18.2961L69.3924 19.8266C70.9209 22.5819 74.0617 24.0254 77.148 23.391V23.391V23.391C74.5171 25.1248 73.3169 28.3664 74.1844 31.3955L74.6662 33.0781L73.8171 31.5476C72.2886 28.7923 69.1478 27.3488 66.0615 27.9832V27.9832V27.9832C68.6924 26.2494 69.8926 23.0078 69.0251 19.9787L68.5433 18.2961Z" fill="#5F8FBF"/>
<path d="M133.543 171.296L134.392 172.827C135.921 175.582 139.062 177.025 142.148 176.391V176.391V176.391C139.517 178.125 138.317 181.366 139.184 184.396L139.666 186.078L138.817 184.548C137.289 181.792 134.148 180.349 131.061 180.983V180.983V180.983C133.692 179.249 134.893 176.008 134.025 172.979L133.543 171.296Z" fill="#5F8FBF"/>
<path d="M68.5431 187.078L69.025 185.396C69.8925 182.366 68.6923 179.125 66.0613 177.391V177.391V177.391C69.1477 178.025 72.2885 176.582 73.817 173.827L74.6661 172.296L74.1842 173.979C73.3168 177.008 74.5169 180.249 77.1479 181.983V181.983V181.983C74.0615 181.349 70.9208 182.792 69.3922 185.548L68.5431 187.078Z" fill="#5F8FBF"/>
<path d="M133.543 34.0782L134.025 32.3955C134.892 29.3664 133.692 26.1249 131.061 24.391V24.391V24.391C134.148 25.0254 137.288 23.5819 138.817 20.8266L139.666 19.2961L139.184 20.9787C138.317 24.0079 139.517 27.2494 142.148 28.9832V28.9832V28.9832C139.062 28.3489 135.921 29.7923 134.392 32.5476L133.543 34.0782Z" fill="#5F8FBF"/>
<path d="M19.2962 138.666L20.8267 137.817C23.582 136.289 25.0255 133.148 24.3911 130.061V130.061V130.061C26.125 132.692 29.3665 133.893 32.3956 133.025L34.0783 132.543L32.5477 133.392C29.7924 134.921 28.349 138.062 28.9833 141.148V141.148V141.148C27.2495 138.517 24.008 137.317 20.9788 138.184L19.2962 138.666Z" fill="#5F8FBF"/>
<path d="M172.296 73.6662L173.827 72.8171C176.582 71.2886 178.025 68.1478 177.391 65.0615V65.0615V65.0615C179.125 67.6924 182.366 68.8926 185.396 68.0251L187.078 67.5433L185.548 68.3923C182.792 69.9209 181.349 73.0616 181.983 76.148V76.148V76.148C180.249 73.5171 177.008 72.3169 173.979 73.1843L172.296 73.6662Z" fill="#5F8FBF"/>
<path d="M19.2961 67.5434L20.9787 68.0253C24.0079 68.8927 27.2494 67.6925 28.9832 65.0616V65.0616V65.0616C28.3489 68.1479 29.7923 71.2887 32.5476 72.8172L34.0782 73.6663L32.3955 73.1845C29.3664 72.317 26.1249 73.5172 24.391 76.1481V76.1481V76.1481C25.0254 73.0618 23.5819 69.921 20.8266 68.3925L19.2961 67.5434Z" fill="#5F8FBF"/>
<path d="M172.296 130.543L173.979 131.025C177.008 131.893 180.249 130.693 181.983 128.062V128.062V128.062C181.349 131.148 182.792 134.289 185.548 135.817L187.078 136.666L185.396 136.184C182.366 135.317 179.125 136.517 177.391 139.148V139.148V139.148C178.025 136.062 176.582 132.921 173.827 131.392L172.296 130.543Z" fill="#5F8FBF"/>
<path d="M30.932 30.7882L103 1.08162L175.068 30.7882L204.917 102.5L175.068 174.212L103 203.918L30.9321 174.212L1.08317 102.5L30.932 30.7882Z" stroke="#5F8FBF" stroke-width="2"/>
<path d="M9.2477 64.1665L64.1665 9.24766L141.834 9.24767L196.752 64.1665L196.752 141.833L141.834 196.752L64.1665 196.752L9.2477 141.833L9.2477 64.1665Z" stroke="#5F8FBF" stroke-width="2"/>
</svg>
