<svg width="97" height="97" viewBox="0 0 97 97" fill="none" xmlns="http://www.w3.org/2000/svg">
<g clip-path="url(#clip0_132_430)">
<path d="M89.8395 0H7.16049C5.26141 0 3.44011 0.754407 2.09726 2.09726C0.754407 3.44011 0 5.26141 0 7.16049V89.8395C0 91.7386 0.754407 93.5599 2.09726 94.9027C3.44011 96.2456 5.26141 97 7.16049 97H89.8395C91.7386 97 93.5599 96.2456 94.9027 94.9027C96.2456 93.5599 97 91.7386 97 89.8395V7.16049C97 5.26141 96.2456 3.44011 94.9027 2.09726C93.5599 0.754407 91.7386 0 89.8395 0ZM28.9114 82.6319H14.3277V36.3076H28.9114V82.6319ZM21.6094 29.8881C19.9552 29.8788 18.3407 29.3797 16.9699 28.4537C15.599 27.5277 14.5332 26.2164 13.9069 24.6852C13.2806 23.1541 13.1219 21.4717 13.4508 19.8505C13.7797 18.2292 14.5815 16.7417 15.755 15.5757C16.9286 14.4097 18.4212 13.6175 20.0445 13.2989C21.6679 12.9804 23.3492 13.1499 24.8763 13.7861C26.4034 14.4222 27.7078 15.4964 28.625 16.8732C29.5421 18.25 30.0309 19.8676 30.0296 21.5219C30.0452 22.6294 29.8377 23.7288 29.4193 24.7544C29.001 25.7801 28.3805 26.711 27.5948 27.4917C26.809 28.2724 25.8741 28.8869 24.8458 29.2986C23.8175 29.7104 22.7169 29.9108 21.6094 29.8881ZM82.6656 82.6723H68.0886V57.3647C68.0886 49.9011 64.9159 47.5974 60.8204 47.5974C56.4958 47.5974 52.252 50.8576 52.252 57.5533V82.6723H37.6683V36.3413H51.6929V42.7608H51.8815C53.2894 39.9115 58.2202 35.0413 65.7444 35.0413C73.8817 35.0413 82.6723 39.871 82.6723 54.0169L82.6656 82.6723Z" fill="#5F8FBF"/>
</g>
<defs>
<clipPath id="clip0_132_430">
<rect width="97" height="97" fill="white"/>
</clipPath>
</defs>
</svg>
